<?xml version="1.0" encoding="UTF-8"?>
<svg version="1.1" xmlns="http://www.w3.org/2000/svg" width="500" height="500">
<path d="M0 0 C6.38449871 5.65921965 11.40045728 11.83404576 16 19 C16.51304687 19.77988281 17.02609375 20.55976563 17.5546875 21.36328125 C21.89260383 28.22977576 24.9500862 35.49418376 28 43 C30.09134643 43.13797573 30.09134643 43.13797573 32.15625 42.01953125 C35.71438118 40.74388257 38.72534784 40.69882396 42.5 40.6875 C43.7890625 40.67074219 45.078125 40.65398437 46.40625 40.63671875 C50.44747751 41.04523414 53.10944566 42.10944566 56 45 C56.45434298 50.22494432 56.45434298 50.22494432 54.9375 52.8125 C49.18784913 56.33647956 40.47678243 55.32194533 34 55 C33.01 54.67 32.02 54.34 31 54 C30.98018066 54.67466309 30.96036133 55.34932617 30.93994141 56.04443359 C30.8436189 59.15495861 30.7343819 62.26490789 30.625 65.375 C30.5940625 66.43589844 30.563125 67.49679688 30.53125 68.58984375 C30.28623709 75.24602788 29.54467116 81.51818952 28 88 C28.85464844 88.50789063 29.70929688 89.01578125 30.58984375 89.5390625 C31.69457031 90.22742188 32.79929687 90.91578125 33.9375 91.625 C35.03964844 92.29789062 36.14179688 92.97078125 37.27734375 93.6640625 C40 96 40 96 40.9375 99.125 C41 102 41 102 40.0625 104.375 C37.50475345 106.39019425 35.47965387 106.60826168 32.25927734 106.47485352 C29.5594894 105.90741375 27.60572816 104.85232391 25.2265625 103.46484375 C24.03281006 102.77636353 24.03281006 102.77636353 22.81494141 102.07397461 C22.21601074 101.71956299 21.61708008 101.36515137 21 101 C21.22719727 101.82238159 21.22719727 101.82238159 21.45898438 102.66137695 C26.65613212 121.71292126 27.47392002 135.91277388 18.1875 153.875 C11.0060824 166.03237447 1.65174885 174.67412557 -11 181 C-11.99 181 -12.98 181 -14 181 C-9.63888492 188.61615025 -5.21889034 195.99498306 0.25 202.875 C6.8967478 211.25248694 12.94403126 219.86043108 12 231 C10.82776719 238.05888016 7.73574325 241.79176477 2.3515625 246.37109375 C-4.28754329 250.96994278 -11.16838713 250.69259161 -19 250 C-25.16346936 248.44436396 -28.68062767 244.5631202 -32.5546875 239.70703125 C-33.90738653 237.88229153 -33.90738653 237.88229153 -36 237 C-36 236.34 -36 235.68 -36 235 C-36.66 235 -37.32 235 -38 235 C-38 234.34 -38 233.68 -38 233 C-38.66 233 -39.32 233 -40 233 C-44.92553011 224.73782046 -46.45716342 217.82865368 -44.0625 208.25 C-42.32969045 204.12592384 -39.80511964 200.46907083 -37.37109375 196.734375 C-36.95114136 196.08581543 -36.53118896 195.43725586 -36.09851074 194.76904297 C-35.06782653 193.17796541 -34.03420546 191.58879099 -33 190 C-33.55551041 190.00222061 -34.11102081 190.00444122 -34.68336487 190.00672913 C-40.54110054 190.02910215 -46.39882379 190.04403793 -52.2565918 190.05493164 C-54.43368016 190.05991574 -56.61076525 190.06670544 -58.7878418 190.07543945 C-70.90260698 190.12277363 -82.92596696 190.07949474 -95 189 C-88.92579606 199.42514278 -82.79382327 209.7743828 -76.12109375 219.83203125 C-70.27731809 228.7501941 -65.59459718 237.60522778 -67.4375 248.61328125 C-68.95098374 254.28024592 -71.20985246 258.52956957 -75 263 C-75.66 263 -76.32 263 -77 263 C-77 263.66 -77 264.32 -77 265 C-78.6029053 265.81498562 -80.20737278 266.62689927 -81.8125 267.4375 C-83.15248047 268.11619141 -83.15248047 268.11619141 -84.51953125 268.80859375 C-90.88761326 271.86727881 -98.00634219 272.2578894 -104.765625 270.12890625 C-110.60616841 267.39675021 -114.72095104 263.74605176 -119 259 C-119.97450173 258.05765188 -120.95317586 257.11958347 -121.9375 256.1875 C-124 254 -124 254 -124 252 C-124.66 252 -125.32 252 -126 252 C-127.4375 250.2421875 -127.4375 250.2421875 -129 247.875 C-129.515625 247.10929687 -130.03125 246.34359375 -130.5625 245.5546875 C-133.27915858 240.72671275 -134.30646225 236.32978855 -134.375 230.8125 C-134.40335937 229.78769531 -134.43171875 228.76289063 -134.4609375 227.70703125 C-133.19351689 217.51396214 -127.96635221 208.96931215 -122.75 200.3125 C-121.77546875 198.66991211 -121.77546875 198.66991211 -120.78125 196.99414062 C-119.19571404 194.32437786 -117.60192433 191.65994988 -116 189 C-116.825 189.03552979 -117.65 189.07105957 -118.5 189.10766602 C-171.15991039 191.30795106 -171.15991039 191.30795106 -190.3125 174.5 C-192.96623132 172.04344996 -195.20777272 169.73362472 -197.4375 166.875 C-200.63646359 163.2859189 -204.24570534 161.22635053 -208.328125 158.73828125 C-211.78514769 156.48919485 -214.31437814 154.12112811 -217 151 C-217 150.34 -217 149.68 -217 149 C-217.66 149 -218.32 149 -219 149 C-226.762733 138.64248159 -229.88738371 126.79445964 -229 114 C-226.67270747 98.73516004 -220.21775019 87.3964637 -208.125 77.6875 C-203.48859951 74.40649885 -196.80543868 70 -191 70 C-190.9175 68.9275 -190.835 67.855 -190.75 66.75 C-189.48363569 56.94868718 -185.79103932 48.89262617 -180 41 C-179.24484129 39.81577385 -178.4941407 38.62868045 -177.75 37.4375 C-176.88375 36.2309375 -176.88375 36.2309375 -176 35 C-175.34 35 -174.68 35 -174 35 C-173.76152344 34.41992188 -173.52304688 33.83984375 -173.27734375 33.2421875 C-166.72584819 21.74200876 -148.95456234 15.39214126 -137 12 C-133.31446222 11.32810571 -129.74168088 11.07569875 -126 11 C-124.56914062 10.94199219 -124.56914062 10.94199219 -123.109375 10.8828125 C-113.11749579 10.64740173 -103.00492557 11.39282878 -94 16 C-93.814375 15.34 -93.62875 14.68 -93.4375 14 C-91.39191226 9.73094732 -88.42815357 6.25836294 -85 3 C-84.34 3 -83.68 3 -83 3 C-83 2.34 -83 1.68 -83 1 C-58.91054693 -20.10739312 -24.43714712 -20.35816467 0 0 Z " fill="#304C59" transform="translate(357,144)"/>
<path d="M0 0 C10.36216624 7.20846347 18.94162223 15.00795676 24.3359375 26.625 C24.7175 27.43324219 25.0990625 28.24148437 25.4921875 29.07421875 C28.1480752 35.41989329 28.84271723 41.24458337 28.83300781 48.05493164 C28.89394643 51.56456092 29.30436679 53.57203598 31.1171875 56.61328125 C33.07574153 58.76603894 33.07574153 58.76603894 35.2109375 58.89453125 C35.9121875 58.74371094 36.6134375 58.59289062 37.3359375 58.4375 C49.92632055 56.58817074 62.11938196 55.28583141 73.0234375 62.703125 C76.6014404 65.67673552 79.46201301 68.32108458 81.4609375 72.5625 C81.77289063 73.21089844 82.08484375 73.85929687 82.40625 74.52734375 C82.71304688 75.21957031 83.01984375 75.91179687 83.3359375 76.625 C83.696875 77.37394531 84.0578125 78.12289062 84.4296875 78.89453125 C86.73039438 85.82640241 86.55072885 95.82786647 83.7734375 102.5625 C79.68002464 110.08630814 75.13552338 115.93792304 67.3359375 119.625 C66.2840625 120.181875 65.2321875 120.73875 64.1484375 121.3125 C59.62758623 123.42223059 55.96589868 123.75551005 50.9753418 123.78562927 C49.01157341 123.80069771 49.01157341 123.80069771 47.00813293 123.81607056 C45.55880795 123.82210038 44.10948235 123.8279854 42.66015625 123.83374023 C41.13225593 123.84328236 39.60435776 123.85317368 38.07646179 123.86338806 C33.05881301 123.89474178 28.04114784 123.91504127 23.0234375 123.93359375 C21.7409248 123.93853973 21.7409248 123.93853973 20.43250275 123.94358563 C12.36114496 123.97437306 4.28978332 124.00106754 -3.78161621 124.01800442 C-14.08574752 124.03988348 -24.38935596 124.0817985 -34.69327831 124.15144199 C-41.9486851 124.19880444 -49.20395147 124.22295451 -56.45950794 124.2302013 C-60.78719256 124.23514043 -65.11428753 124.25005351 -69.44180298 124.2899456 C-73.51976882 124.32704127 -77.5968139 124.33514763 -81.67491722 124.32193947 C-83.16314582 124.32199304 -84.65141763 124.33213629 -86.13949013 124.3536911 C-98.47948023 124.52272855 -107.53354426 121.76278678 -116.6640625 113.1875 C-124.6640625 104.57769964 -124.6640625 104.57769964 -124.6640625 98.625 C-125.3240625 98.625 -125.9840625 98.625 -126.6640625 98.625 C-129.83423746 89.11447513 -128.25612411 77.46626559 -124.27734375 68.5 C-120.070926 61.00381728 -114.37535015 55.41378295 -106.6640625 51.625 C-106.04660156 51.30660156 -105.42914063 50.98820312 -104.79296875 50.66015625 C-95.31249633 46.64989793 -82.40854968 47.04683257 -72.9765625 50.8125 C-71.17997311 51.69964345 -69.40476024 52.63266522 -67.6640625 53.625 C-66.63732422 54.20121094 -66.63732422 54.20121094 -65.58984375 54.7890625 C-59.65392069 58.57466202 -55.64777594 64.3353881 -52.6640625 70.625 C-50.0240625 70.625 -47.3840625 70.625 -44.6640625 70.625 C-44.02642653 63.92982233 -44.73710207 60.18591616 -48.765625 54.7578125 C-54.27558869 48.56760638 -61.27391053 44.24684024 -68.6640625 40.625 C-69.28667969 40.315625 -69.90929687 40.00625 -70.55078125 39.6875 C-76.65690139 37.02487319 -83.08310872 36.91592631 -89.6640625 36.625 C-86.78892201 20.62257334 -78.55267691 10.02021321 -65.8046875 0.19140625 C-63.81674724 -1.17211687 -61.81480479 -2.28499795 -59.6640625 -3.375 C-58.76171875 -3.84164062 -57.859375 -4.30828125 -56.9296875 -4.7890625 C-39.09101653 -12.57716519 -16.21974788 -10.49821869 0 0 Z " fill="#FAFBFB" transform="translate(268.6640625,176.375)"/>
<path d="M0 0 C3.19231388 2.67648267 4.73434934 6.13084851 6.5 9.8125 C6.94279297 10.71838867 6.94279297 10.71838867 7.39453125 11.64257812 C8.26643697 13.42672001 9.13326362 15.21334114 10 17 C10.99727922 19.00135808 11.99632972 21.00183935 13 23 C13.66 22.34 14.32 21.68 15 21 C18.69607833 19.64332184 22.54133707 19.79633692 26.4375 19.75 C27.73558594 19.72421875 29.03367187 19.6984375 30.37109375 19.671875 C34.45125442 20.04080234 37.08665262 21.08665262 40 24 C40.45434298 29.22494432 40.45434298 29.22494432 38.9375 31.8125 C33.18784913 35.33647956 24.47678243 34.32194533 18 34 C17.01 33.67 16.02 33.34 15 33 C14.98018066 33.67466309 14.96036133 34.34932617 14.93994141 35.04443359 C14.8436189 38.15495861 14.7343819 41.26490789 14.625 44.375 C14.5940625 45.43589844 14.563125 46.49679688 14.53125 47.58984375 C14.28623709 54.24602788 13.54467116 60.51818952 12 67 C12.85464844 67.50789063 13.70929688 68.01578125 14.58984375 68.5390625 C15.69457031 69.22742188 16.79929687 69.91578125 17.9375 70.625 C19.03964844 71.29789062 20.14179688 71.97078125 21.27734375 72.6640625 C24 75 24 75 24.9375 78.125 C25 81 25 81 24.0625 83.375 C21.50475345 85.39019425 19.47965387 85.60826168 16.25927734 85.47485352 C13.5594894 84.90741375 11.60572816 83.85232391 9.2265625 82.46484375 C8.03281006 81.77636353 8.03281006 81.77636353 6.81494141 81.07397461 C6.21601074 80.71956299 5.61708008 80.36515137 5 80 C5.22719727 80.82238159 5.22719727 80.82238159 5.45898438 81.66137695 C10.65613212 100.71292126 11.47392002 114.91277388 2.1875 132.875 C-4.9939176 145.03237447 -14.34825115 153.67412557 -27 160 C-27.99 160 -28.98 160 -30 160 C-25.63888492 167.61615025 -21.21889034 174.99498306 -15.75 181.875 C-9.1032522 190.25248694 -3.05596874 198.86043108 -4 210 C-5.17223281 217.05888016 -8.26425675 220.79176477 -13.6484375 225.37109375 C-20.28754329 229.96994278 -27.16838713 229.69259161 -35 229 C-41.16346936 227.44436396 -44.68062767 223.5631202 -48.5546875 218.70703125 C-49.90738653 216.88229153 -49.90738653 216.88229153 -52 216 C-52 215.34 -52 214.68 -52 214 C-52.66 214 -53.32 214 -54 214 C-54 213.34 -54 212.68 -54 212 C-54.66 212 -55.32 212 -56 212 C-60.92553011 203.73782046 -62.45716342 196.82865368 -60.0625 187.25 C-58.32969045 183.12592384 -55.80511964 179.46907083 -53.37109375 175.734375 C-52.95114136 175.08581543 -52.53118896 174.43725586 -52.09851074 173.76904297 C-51.06782653 172.17796541 -50.03420546 170.58879099 -49 169 C-49.55551041 169.00222061 -50.11102081 169.00444122 -50.68336487 169.00672913 C-56.54110054 169.02910215 -62.39882379 169.04403793 -68.2565918 169.05493164 C-70.43368016 169.05991574 -72.61076525 169.06670544 -74.7878418 169.07543945 C-86.90260698 169.12277363 -98.92596696 169.07949474 -111 168 C-104.92579606 178.42514278 -98.79382327 188.7743828 -92.12109375 198.83203125 C-86.27731809 207.7501941 -81.59459718 216.60522778 -83.4375 227.61328125 C-84.95098374 233.28024592 -87.20985246 237.52956957 -91 242 C-91.66 242 -92.32 242 -93 242 C-93 242.66 -93 243.32 -93 244 C-94.6029053 244.81498562 -96.20737278 245.62689927 -97.8125 246.4375 C-98.70582031 246.88996094 -99.59914063 247.34242188 -100.51953125 247.80859375 C-106.88761326 250.86727881 -114.00634219 251.2578894 -120.765625 249.12890625 C-126.60616841 246.39675021 -130.72095104 242.74605176 -135 238 C-135.97450173 237.05765188 -136.95317586 236.11958347 -137.9375 235.1875 C-140 233 -140 233 -140 231 C-140.66 231 -141.32 231 -142 231 C-143.4375 229.2421875 -143.4375 229.2421875 -145 226.875 C-145.515625 226.10929688 -146.03125 225.34359375 -146.5625 224.5546875 C-149.27915858 219.72671275 -150.30646225 215.32978855 -150.375 209.8125 C-150.40335937 208.78769531 -150.43171875 207.76289063 -150.4609375 206.70703125 C-149.19351689 196.51396214 -143.96635221 187.96931215 -138.75 179.3125 C-137.77546875 177.66991211 -137.77546875 177.66991211 -136.78125 175.99414062 C-135.19571404 173.32437786 -133.60192433 170.65994988 -132 168 C-132.825 168.03552979 -133.65 168.07105957 -134.5 168.10766602 C-187.15991039 170.30795106 -187.15991039 170.30795106 -206.3125 153.5 C-209.86244174 150.19526617 -213.0190292 146.81936884 -216 143 C-216.66 142.34 -217.32 141.68 -218 141 C-216.68 141 -215.36 141 -214 141 C-214 141.66 -214 142.32 -214 143 C-210.7 143.66 -207.4 144.32 -204 145 C-204 145.66 -204 146.32 -204 147 C-183.75414898 146.96275273 -163.50848518 146.90277382 -143.262784 146.81609726 C-133.86130315 146.7763712 -124.45990522 146.74394613 -115.05834961 146.72900391 C-106.85924586 146.71595394 -98.66032507 146.68890436 -90.46132439 146.64538693 C-86.12424605 146.62284703 -81.78739273 146.6070848 -77.45025063 146.60811615 C-73.35843441 146.60886721 -69.26711421 146.59073949 -65.17542648 146.55883217 C-63.68284433 146.55039293 -62.19020615 146.54854206 -60.69761086 146.55419731 C-47.25917798 146.59828681 -35.7725006 144.39557233 -25 136 C-24.13761719 135.36384766 -24.13761719 135.36384766 -23.2578125 134.71484375 C-20.57264508 132.63751273 -18.5637549 130.52439868 -16.75 127.6875 C-16.1725 126.800625 -15.595 125.91375 -15 125 C-14.34 125 -13.68 125 -13 125 C-11.97740091 121.67314428 -10.98597037 118.33787041 -10 115 C-9.78730469 114.33226562 -9.57460938 113.66453125 -9.35546875 112.9765625 C-5.82617328 100.94141104 -8.12227954 87.34600194 -13 76 C-13.66 76 -14.32 76 -15 76 C-14.42657863 72.31371976 -12.98862906 70.7184466 -10.375 68.125 C0.13766384 56.6138215 5.84011711 40.16514561 5.40234375 24.66796875 C4.79484899 19.12973984 3.47606965 13.85200399 1.97265625 8.49609375 C1.18560162 5.66712229 0.52624309 2.88602789 0 0 Z " fill="#AFCBD2" transform="translate(373,165)"/>
<path d="M0 0 C1.96338826 1.41519471 3.73463479 2.93112321 5.53515625 4.546875 C6.26992188 5.10761719 7.0046875 5.66835937 7.76171875 6.24609375 C17.50635673 14.0189906 22.80574721 25.31748251 24.53515625 37.546875 C25.90362949 52.46323335 21.79328742 65.81990885 12.53515625 77.546875 C10.61900344 79.65955631 9.58240479 80.52662563 6.91015625 81.671875 C4.53515625 81.546875 4.53515625 81.546875 2.71484375 80.14453125 C0.27071181 78.35304386 -1.8051463 77.66337035 -4.71484375 76.859375 C-5.606875 76.60800781 -6.49890625 76.35664063 -7.41796875 76.09765625 C-8.0934375 75.91589844 -8.76890625 75.73414063 -9.46484375 75.546875 C-9.46484375 74.886875 -9.46484375 74.226875 -9.46484375 73.546875 C-17.38484375 73.546875 -25.30484375 73.546875 -33.46484375 73.546875 C-33.85671875 71.34 -34.24859375 69.133125 -34.65234375 66.859375 C-37.48905402 52.30851419 -42.95027927 39.20916733 -54.8828125 29.80859375 C-56.46484375 28.546875 -56.46484375 28.546875 -58.96484375 25.984375 C-61.92911961 23.09420604 -65.05338425 20.8880727 -68.46484375 18.546875 C-67.97610731 14.14824705 -66.68663468 12.49251242 -63.46484375 9.546875 C-62.90796875 8.763125 -62.35109375 7.979375 -61.77734375 7.171875 C-45.92822007 -10.81902215 -19.54510401 -11.52262867 0 0 Z " fill="#FCC177" transform="translate(342.46484375,148.453125)"/>
<path d="M0 0 C2.34010151 1.61386311 2.91476053 2.77837738 3.9375 5.4375 C4.8397628 8.08185438 4.8397628 8.08185438 6.87963867 9.85693359 C9.06629781 12.06700773 10.44758277 14.15980914 11.98828125 16.8515625 C12.53033203 17.78613281 13.07238281 18.72070312 13.63085938 19.68359375 C14.18580078 20.65425781 14.74074219 21.62492187 15.3125 22.625 C19.09445229 29.21986343 22.97841119 35.58541445 27.47192383 41.72412109 C32.37465751 49.02613153 35.04353172 57.84039243 33.55859375 66.60546875 C32.05675686 72.27812123 29.79093075 76.52864578 26 81 C25.34 81 24.68 81 24 81 C24 81.66 24 82.32 24 83 C22.3970947 83.81498562 20.79262722 84.62689927 19.1875 85.4375 C18.29417969 85.88996094 17.40085937 86.34242188 16.48046875 86.80859375 C10.11238674 89.86727881 2.99365781 90.2578894 -3.765625 88.12890625 C-9.60616841 85.39675021 -13.72095104 81.74605176 -18 77 C-18.97450173 76.05765188 -19.95317586 75.11958347 -20.9375 74.1875 C-23 72 -23 72 -23 70 C-23.66 70 -24.32 70 -25 70 C-26.4375 68.2421875 -26.4375 68.2421875 -28 65.875 C-28.7734375 64.72644531 -28.7734375 64.72644531 -29.5625 63.5546875 C-33.83359 55.96421777 -34.08153448 47.86865431 -32.5234375 39.4140625 C-30.38747286 32.57466056 -26.54309247 26.46084238 -22.9375 20.3125 C-22.40672852 19.40169678 -21.87595703 18.49089355 -21.32910156 17.55249023 C-20.81702148 16.70630127 -20.30494141 15.8601123 -19.77734375 14.98828125 C-19.31577881 14.22040283 -18.85421387 13.45252441 -18.37866211 12.66137695 C-17.69622437 11.83899536 -17.69622437 11.83899536 -17 11 C-16.01 11 -15.02 11 -14 11 C-13.896875 10.29875 -13.79375 9.5975 -13.6875 8.875 C-12.89428228 5.55790773 -11.7340914 2.93461621 -10 0 C-6.22941703 -1.25686099 -3.86146303 -0.82745636 0 0 Z " fill="#314E5B" transform="translate(256,326)"/>
<path d="M0 0 C0.33 0.66 0.66 1.32 1 2 C0.05125 2.144375 -0.8975 2.28875 -1.875 2.4375 C-4.8934494 2.82935399 -4.8934494 2.82935399 -7 4 C-7 3.34 -7 2.68 -7 2 C-7.99 2 -8.98 2 -10 2 C-10 2.66 -10 3.32 -10 4 C-9.34 4 -8.68 4 -8 4 C-7.01 7.465 -7.01 7.465 -6 11 C-8.62378482 9.84553468 -10.50925574 8.58333622 -12.75 6.75 C-22.57434523 -0.26738945 -34.96677037 -3.74824018 -46.95605469 -2.36328125 C-57.75381873 -0.44413733 -67.84959237 4.73071752 -76 12 C-77.02304948 13.65261839 -78.02616054 15.31791365 -79 17 C-79.99 17.66 -80.98 18.32 -82 19 C-82 20.32 -82 21.64 -82 23 C-81.01 23.66 -80.02 24.32 -79 25 C-77.8125 27.625 -77.8125 27.625 -77 30 C-78.32 30.66 -79.64 31.32 -81 32 C-81 32.99 -81 33.98 -81 35 C-85.32037302 34.72997669 -88.05213292 34.16570142 -91.625 31.6875 C-104.53315501 23.32515476 -121.66573131 22.72701172 -136.50390625 25.46142578 C-150.94961336 29.15136184 -163.25075482 39.06361127 -171.546875 51.27734375 C-173.36420116 54.68238765 -174.52483192 58.14184096 -175.6875 61.8125 C-175.91244141 62.50537109 -176.13738281 63.19824219 -176.36914062 63.91210938 C-176.91828909 65.60629082 -177.45991862 67.30290633 -178 69 C-177.154375 68.96519531 -176.30875 68.93039063 -175.4375 68.89453125 C-161.52296526 68.56247985 -149.89230374 73.79701744 -139.53515625 83.33984375 C-135.44820933 87.75957006 -132.31350865 91.84027375 -131.4375 97.875 C-132 101 -132 101 -133.125 102.9375 C-135.95514811 104.54125059 -137.81497476 104.53083754 -141 104 C-142.5625 101.875 -142.5625 101.875 -144 99 C-144.87268158 97.91840374 -145.76961919 96.85601254 -146.6875 95.8125 C-149 93 -149 93 -149 91 C-149.7734375 90.62875 -149.7734375 90.62875 -150.5625 90.25 C-153.05433604 88.97213536 -155.43937826 87.5581029 -157.828125 86.09765625 C-164.09934986 82.92820628 -169.64784556 81.44024453 -176.6875 81.5 C-177.85889526 81.50749268 -177.85889526 81.50749268 -179.05395508 81.51513672 C-189.58100662 81.82783209 -198.66827541 85.35405864 -206 93 C-206.804375 93.78375 -207.60875 94.5675 -208.4375 95.375 C-208.953125 95.91125 -209.46875 96.4475 -210 97 C-209.88026541 90.89353574 -209.88026541 90.89353574 -207.4453125 88.421875 C-202.70581897 85 -202.70581897 85 -200 85 C-199.67 84.01 -199.34 83.02 -199 82 C-197.35 82.33 -195.7 82.66 -194 83 C-194 81.02 -194 79.04 -194 77 C-196.64877696 75.58101234 -199.08014819 74.68088981 -202 74 C-200.5437455 73.32880451 -199.08492133 72.66318193 -197.625 72 C-196.81289062 71.62875 -196.00078125 71.2575 -195.1640625 70.875 C-193 70 -193 70 -191 70 C-190.9175 68.9275 -190.835 67.855 -190.75 66.75 C-189.48363569 56.94868718 -185.79103932 48.89262617 -180 41 C-179.24484129 39.81577385 -178.4941407 38.62868045 -177.75 37.4375 C-176.88375 36.2309375 -176.88375 36.2309375 -176 35 C-175.34 35 -174.68 35 -174 35 C-173.76152344 34.41992188 -173.52304688 33.83984375 -173.27734375 33.2421875 C-166.72584819 21.74200876 -148.95456234 15.39214126 -137 12 C-133.31446222 11.32810571 -129.74168088 11.07569875 -126 11 C-124.56914062 10.94199219 -124.56914062 10.94199219 -123.109375 10.8828125 C-113.11749579 10.64740173 -103.00492557 11.39282878 -94 16 C-93.7215625 15.01 -93.7215625 15.01 -93.4375 14 C-91.39191226 9.73094732 -88.42815357 6.25836294 -85 3 C-84.34 3 -83.68 3 -83 3 C-83 2.34 -83 1.68 -83 1 C-59.09339457 -19.94718039 -24.22681438 -20.59051953 0 0 Z " fill="#334E5A" transform="translate(357,144)"/>
<path d="M0 0 C7.14037385 2.62299448 12.7729059 6.11440787 16.3125 13.0625 C16.9005848 14.3637374 17.46220778 15.67718406 18 17 C18.35707031 17.74636719 18.71414063 18.49273437 19.08203125 19.26171875 C21.40302451 26.18519228 21.2136006 36.2057539 18.4375 42.9375 C14.34408714 50.46130814 9.79958588 56.31292304 2 60 C0.4221875 60.8353125 0.4221875 60.8353125 -1.1875 61.6875 C-5.70835127 63.79723059 -9.37003882 64.13051005 -14.3605957 64.16062927 C-16.32436409 64.17569771 -16.32436409 64.17569771 -18.32780457 64.19107056 C-19.77712955 64.19710038 -21.22645515 64.2029854 -22.67578125 64.20874023 C-24.20368157 64.21828236 -25.73157974 64.22817368 -27.25947571 64.23838806 C-32.27712449 64.26974178 -37.29478966 64.29004127 -42.3125 64.30859375 C-43.5950127 64.31353973 -43.5950127 64.31353973 -44.90343475 64.31858563 C-52.97479254 64.34937306 -61.04615418 64.37606754 -69.11755371 64.39300442 C-79.42168502 64.41488348 -89.72529346 64.4567985 -100.02921581 64.52644199 C-107.2846226 64.57380444 -114.53988897 64.59795451 -121.79544544 64.6052013 C-126.12313006 64.61014043 -130.45022503 64.62505351 -134.77774048 64.6649456 C-138.85570632 64.70204127 -142.9327514 64.71014763 -147.01085472 64.69693947 C-148.49908332 64.69699304 -149.98735513 64.70713629 -151.47542763 64.7286911 C-162.35958153 64.877786 -171.16686734 63.09342247 -179.58706665 55.74100399 C-181.47996612 53.88917494 -183.27052857 52.00415219 -185 50 C-182.7534157 45.81499119 -180.89213144 42.61902998 -176.9375 39.875 C-174 39 -174 39 -172.0625 39.5 C-170.82682603 40.39867198 -169.59591585 41.30403447 -168.375 42.22265625 C-167.776875 42.66480469 -167.17875 43.10695313 -166.5625 43.5625 C-166.00691406 43.99691406 -165.45132813 44.43132812 -164.87890625 44.87890625 C-160.92501137 47.23809093 -156.49465093 47.12763688 -151.9992218 47.14044189 C-150.19313194 47.14900711 -150.19313194 47.14900711 -148.35055542 47.15774536 C-147.0377359 47.15886322 -145.72491638 47.15998108 -144.37231445 47.16113281 C-142.96909963 47.16576465 -141.56588607 47.1707898 -140.16267395 47.17617798 C-136.35663531 47.18927035 -132.55061429 47.19574095 -128.74455667 47.20018864 C-126.36329873 47.20312498 -123.98204555 47.20723088 -121.60079002 47.21169281 C-114.14063328 47.22536052 -106.68048748 47.23503026 -99.22031909 47.2388947 C-90.62703292 47.2433713 -82.03390613 47.26090371 -73.4406684 47.2898953 C-66.78653527 47.31156047 -60.13244682 47.32160158 -53.47827882 47.32293582 C-49.50968582 47.32398055 -45.54124281 47.32981716 -41.57268715 47.34775543 C-37.83551816 47.36431963 -34.09861054 47.36635152 -30.36141777 47.35761642 C-28.34995486 47.35648757 -26.3385003 47.37014094 -24.3270874 47.3843689 C-15.48894964 47.34396289 -6.23310977 46.65254134 1 41 C3.04824866 38.49205727 3.04824866 38.49205727 4.75 35.625 C5.34296875 34.68914062 5.9359375 33.75328125 6.546875 32.7890625 C10.47359558 25.25229236 9.41439178 16.13275275 8 8 C7.34 8 6.68 8 6 8 C5.525625 7.195625 5.05125 6.39125 4.5625 5.5625 C3.20016328 2.7081924 3.20016328 2.7081924 0 2 C0 1.34 0 0.68 0 0 Z " fill="#CBDEE4" transform="translate(334,236)"/>
<path d="M0 0 C4.54692692 0.45469269 5.9851439 2.01894159 8.75 5.375 C10.92833504 8.33389306 12.96752599 11.37716709 15 14.4375 C19.48517683 21.11070803 24.0739866 27.6055284 29.04296875 33.9296875 C33.70304173 40.60521538 33.45688131 47.47403553 32.75 55.375 C31.11788567 61.58094371 27.05604094 65.91118117 21.75 69.375 C15.30307122 72.57653606 6.85273295 72.74456252 0.05859375 70.4765625 C-2.125 69.375 -2.125 69.375 -5.25 67.375 C-5.25 66.715 -5.25 66.055 -5.25 65.375 C-5.889375 65.106875 -6.52875 64.83875 -7.1875 64.5625 C-9.25 63.375 -9.25 63.375 -10.25 60.375 C-10.91 60.375 -11.57 60.375 -12.25 60.375 C-12.25 59.715 -12.25 59.055 -12.25 58.375 C-12.91 58.375 -13.57 58.375 -14.25 58.375 C-14.25 57.715 -14.25 57.055 -14.25 56.375 C-14.91 56.375 -15.57 56.375 -16.25 56.375 C-17.72265625 54.58203125 -17.72265625 54.58203125 -19.3125 52.1875 C-19.83972656 51.41019531 -20.36695313 50.63289063 -20.91015625 49.83203125 C-24.12453677 43.9374384 -24.10708511 36.76663802 -22.375 30.375 C-19.37723666 22.12756498 -9.03126415 1.04206894 0 0 Z " fill="#324F5C" transform="translate(165.25,322.625)"/>
<path d="M0 0 C5.7088163 3.66225951 8.8783562 8.57652807 12.36889648 14.2590332 C15.2852753 18.99221303 18.50544514 23.39404343 21.875 27.8125 C27.34164408 35.09918984 31.0101365 41.57205937 30 51 C28.80811005 58.06162757 25.74526923 61.78366276 20.3515625 66.37109375 C13.71245671 70.96994278 6.83161287 70.69259161 -1 70 C-7.16346936 68.44436396 -10.68062767 64.5631202 -14.5546875 59.70703125 C-15.90738653 57.88229153 -15.90738653 57.88229153 -18 57 C-18 56.34 -18 55.68 -18 55 C-18.66 55 -19.32 55 -20 55 C-20 54.34 -20 53.68 -20 53 C-20.66 53 -21.32 53 -22 53 C-26.53340397 45.39558044 -28.3506777 38.94248336 -26.609375 29.9921875 C-24.07136362 22.21546034 -18.75377137 14.72189452 -13 9 C-11.65651263 6.95088277 -10.42526232 4.85418451 -9.18359375 2.7421875 C-6.82788838 -0.72528641 -3.90902416 -0.51628621 0 0 Z " fill="#314D59" transform="translate(339,324)"/>
<path d="M0 0 C1.8125 0.5 1.8125 0.5 4 2 C5.28121816 4.57914786 6.14633793 7.2541443 7 10 C7.33 10.99 7.66 11.98 8 13 C8.66 13 9.32 13 10 13 C10.33 14.98 10.66 16.96 11 19 C11.66 19 12.32 19 13 19 C17.11489674 25.6867072 17.90125034 31.196491 17 39 C15.38780884 43.75172131 13.21560112 46.28997071 9 49 C3.95938869 50.63479286 -1.90208584 50.95359734 -6.75 48.75 C-11.68374275 44.91264453 -13.85705231 42.33816444 -15 36 C-15.36016938 29.06340449 -12.70650617 23.80373136 -9.47265625 17.796875 C-8.12668886 15.24060801 -7.01988528 12.69998616 -6 10 C-6.33 9.67 -6.66 9.34 -7 9 C-7.04063832 7.33382885 -7.042721 5.66611905 -7 4 C-5.02 3.67 -3.04 3.34 -1 3 C-0.67 2.01 -0.34 1.02 0 0 Z " fill="#97C4D6" transform="translate(250,341)"/>
<path d="M0 0 C2.82675313 2.657269 4.88956732 5.19875322 6.8125 8.5625 C8.99881367 12.33028422 11.28987553 15.98809706 13.6875 19.625 C18.77822357 27.63755167 22.18243005 35.93709193 20.5625 45.61328125 C19.04901626 51.28024592 16.79014754 55.52956957 13 60 C12.34 60 11.68 60 11 60 C11 60.66 11 61.32 11 62 C9.3970947 62.81498562 7.79262722 63.62689927 6.1875 64.4375 C5.29417969 64.88996094 4.40085937 65.34242188 3.48046875 65.80859375 C-2.88761326 68.86727881 -10.00634219 69.2578894 -16.765625 67.12890625 C-24.28195908 63.61282972 -30.17336653 58.42817084 -34 51 C-33.48953125 51.2165625 -32.9790625 51.433125 -32.453125 51.65625 C-22.57561253 55.43912712 -13.8809377 54.92421747 -4.1796875 50.875 C-2 50 -2 50 0 50 C0 49.34 0 48.68 0 48 C1.31200404 46.64567325 2.64631404 45.31266518 4 44 C4.495 43.01 4.495 43.01 5 42 C5.66 42 6.32 42 7 42 C8.9169573 36.37742839 9.24889924 31.47630615 9.125 25.5625 C9.11597656 24.73556641 9.10695313 23.90863281 9.09765625 23.05664062 C9.07431512 21.03763292 9.03845288 19.01877644 9 17 C8.34 17 7.68 17 7 17 C6.74605469 16.39671875 6.49210937 15.7934375 6.23046875 15.171875 C4.12776833 10.21185924 4.12776833 10.21185924 1.25 5.6875 C0 4 0 4 0 0 Z " fill="#B2CDD3" transform="translate(269,347)"/>
<path d="M0 0 C8.5106802 7.71280393 15.13428278 16.91997258 16.375 28.5 C15.45001381 37.13320448 13.02019014 41.69932282 6.3515625 47.37109375 C-0.28754329 51.96994278 -7.16838713 51.69259161 -15 51 C-21.89644869 49.25936279 -25.705509 44.36231038 -30 39 C-30.66 38.34 -31.32 37.68 -32 37 C-30.68 37 -29.36 37 -28 37 C-28 37.66 -28 38.32 -28 39 C-24.1413258 39.89820163 -20.52163233 40.16418356 -16.5625 40.1875 C-15.47066406 40.20167969 -14.37882812 40.21585937 -13.25390625 40.23046875 C-9.83359486 39.9882138 -7.15698079 39.32509503 -4 38 C-3.67 37.34 -3.34 36.68 -3 36 C-2.34 36 -1.68 36 -1 36 C-0.7525 35.484375 -0.505 34.96875 -0.25 34.4375 C1 32 1 32 3.125 28.9375 C5.84546201 24.11252964 5.85096324 19.38708961 5 14 C3.87328417 10.70172459 2.57105757 7.58928687 1.09375 4.43359375 C0 2 0 2 0 0 Z " fill="#B4CDD2" transform="translate(353,343)"/>
<path d="M0 0 C9.23811675 7.87957017 13.22303941 19.61649932 14.31640625 31.4140625 C14.80528374 45.63882032 10.07436287 59.09749735 0.4765625 69.6796875 C-1.66250904 71.59240226 -3.1346178 72.15080959 -6 72 C-6.60070312 71.53722656 -7.20140625 71.07445312 -7.8203125 70.59765625 C-10.26444444 68.80616886 -12.34030255 68.11649535 -15.25 67.3125 C-16.14203125 67.06113281 -17.0340625 66.80976563 -17.953125 66.55078125 C-18.62859375 66.36902344 -19.3040625 66.18726563 -20 66 C-18.515 65.01 -18.515 65.01 -17 64 C-14.93850523 62.42428321 -12.88738459 60.83599024 -10.83984375 59.2421875 C-9 58 -9 58 -7 58 C-7 57.34 -7 56.68 -7 56 C-6.34 56 -5.68 56 -5 56 C-4.67 55.01 -4.34 54.02 -4 53 C-3.00814071 51.99192503 -2.00750907 50.99243412 -1 50 C0.13253339 48.24289019 0.13253339 48.24289019 1.0625 46.3125 C1.38347656 45.68988281 1.70445312 45.06726563 2.03515625 44.42578125 C4.57442568 38.04162614 5.36112261 32.0527458 5.3125 25.25 C5.30976074 24.46866699 5.30702148 23.68733398 5.30419922 22.88232422 C5.15994238 14.81886453 3.83516738 7.17009553 0 0 Z " fill="#D9945D" transform="translate(353,158)"/>
<path d="M0 0 C6.25551388 5.88754248 12.42571163 12.41070508 13.3359375 21.26953125 C13.4271634 29.54371997 13.17810264 35.58428015 7.3515625 41.7421875 C0.85066573 47.67532036 -4.84406531 48.42724432 -13.52734375 48.3359375 C-18.22191987 47.88179403 -21.0584986 46.5225609 -25 44 C-25 43.34 -25 42.68 -25 42 C-25.639375 41.731875 -26.27875 41.46375 -26.9375 41.1875 C-29 40 -29 40 -30 37 C-30.66 37 -31.32 37 -32 37 C-32 36.34 -32 35.68 -32 35 C-27.25 35.875 -27.25 35.875 -25 37 C-14.47398668 37.7929262 -14.47398668 37.7929262 -5 34 C0.76878823 27.03720677 3.46553352 21.01479155 2.75 11.9375 C2.69005859 10.87692383 2.69005859 10.87692383 2.62890625 9.79492188 C2.3730414 6.11254257 1.9956473 3.14886971 0 0 Z " fill="#B4CED3" transform="translate(185,346)"/>
<path d="M0 0 C4.1358702 1.3786234 5.09298738 4.17675778 7.0625 7.8125 C7.41376953 8.44220703 7.76503906 9.07191406 8.12695312 9.72070312 C9.0993045 11.47240608 10.05039115 13.23586467 11 15 C11.60714844 16.10601562 11.60714844 16.10601562 12.2265625 17.234375 C13.53151212 20.2133509 13.28024031 22.80526044 13 26 C11.6800393 29.12622271 10.72251903 30.56648858 7.8125 32.3125 C3.42851048 33.38414188 -0.78081815 34.28655155 -4.8125 31.94921875 C-6.98889242 30.1756682 -8.73616553 28.52766895 -10 26 C-10.48488554 20.06015219 -9.08066947 15.46175735 -7 10 C-6.34 10 -5.68 10 -5 10 C-4.731875 9.278125 -4.46375 8.55625 -4.1875 7.8125 C-3.01017502 5.02409874 -1.60854116 2.55904276 0 0 Z " fill="#98C4D5" transform="translate(165,339)"/>
<path d="M0 0 C6.31945688 2.29151477 9.29990726 9.25039076 12 15 C12.86053321 18.89427742 13.01150842 22.13016455 12 26 C9.625 29.0625 9.625 29.0625 7 31 C6.34 31.66 5.68 32.32 5 33 C1.56978662 33.23306328 -1.67141195 32.84424608 -5 32 C-8.57248029 28.6889207 -9.7855308 25.75149848 -10.375 20.9375 C-9.60874642 12.89183743 -4.79317866 6.29960624 0 0 Z " fill="#F1F5F7" transform="translate(335,340)"/>
<path d="M0 0 C2.4375 2.1875 2.4375 2.1875 4 5 C3.64336657 9.81890047 1.26744169 13.94485113 -0.875 18.1875 C-1.22691406 18.91130859 -1.57882812 19.63511719 -1.94140625 20.38085938 C-2.28816406 21.07373047 -2.63492187 21.76660156 -2.9921875 22.48046875 C-3.30526855 23.10848389 -3.61834961 23.73649902 -3.94091797 24.38354492 C-5 26 -5 26 -8 28 C-11.5625 27.8125 -11.5625 27.8125 -15 27 C-17 24 -17 24 -16.87109375 20.8359375 C-15.85130771 16.34522048 -14.17659782 12.68855794 -12.0625 8.625 C-11.70220703 7.90183594 -11.34191406 7.17867188 -10.97070312 6.43359375 C-8.06500759 0.72922645 -6.53388622 -0.78406635 0 0 Z " fill="#3E5762" transform="translate(351,100)"/>
<path d="M0 0 C1.95931104 2.07805716 2.78615746 3.4677517 4 6 C4.51949219 7.01707031 5.03898437 8.03414062 5.57421875 9.08203125 C10.57646611 19.28475023 10.57646611 19.28475023 10 25 C7.79223462 27.54742159 6.32029857 27.9466169 3 28.5 C0 28 0 28 -1.984375 25.8671875 C-4.08690719 22.87637621 -5.6945289 19.93234007 -7.25 16.625 C-8.03117187 15.00464844 -8.03117187 15.00464844 -8.828125 13.3515625 C-10.11683128 9.66586253 -10.2880752 6.8772088 -10 3 C-7.78086082 -1.04666556 -4.19321964 -0.66208731 0 0 Z " fill="#4C646F" transform="translate(289,100)"/>
<path d="M0 0 C3.44996778 0.79999253 5.06552996 2.75592995 7.15625 5.5 C8.88723259 8.96196518 8.62774742 12.71454927 8.15625 16.5 C6.04289541 19.88136735 4.63671866 20.37543405 0.78125 21.375 C-2.96563566 21.50420295 -5.40540164 20.92565664 -8.84375 19.5 C-8.84375 18.84 -8.84375 18.18 -8.84375 17.5 C-9.50375 17.5 -10.16375 17.5 -10.84375 17.5 C-13.07619396 13.16643232 -13.10179803 10.19671265 -11.84375 5.5 C-8.55927797 0.67593171 -5.59180479 -0.29822959 0 0 Z " fill="#304A56" transform="translate(144.84375,148.5)"/>
<path d="M0 0 C2.52683134 1.25002008 4.84437267 2.74958155 7.1875 4.3125 C8.11079102 4.8993457 8.11079102 4.8993457 9.05273438 5.49804688 C12.30671921 7.62388962 15.11915326 9.54350052 17 13 C16.375 16.125 16.375 16.125 15 19 C12 21 12 21 9.30078125 20.90234375 C5.11292952 19.75749908 1.8507897 17.84624841 -1.8125 15.5625 C-2.49248047 15.15451172 -3.17246094 14.74652344 -3.87304688 14.32617188 C-8.86121455 11.27757089 -8.86121455 11.27757089 -10 9 C-10.57232704 2.70440252 -10.57232704 2.70440252 -8.375 0 C-5.11030126 -1.37461 -3.43329619 -0.86543442 0 0 Z " fill="#39515C" transform="translate(246,132)"/>
<path d="M0 0 C1.8125 0.5 1.8125 0.5 4 2 C5.28121816 4.57914786 6.14633793 7.2541443 7 10 C7.33 10.99 7.66 11.98 8 13 C8.66 13 9.32 13 10 13 C10.33 14.98 10.66 16.96 11 19 C11.66 19 12.32 19 13 19 C17.11489674 25.6867072 17.90125034 31.196491 17 39 C15.38780884 43.75172131 13.21560112 46.28997071 9 49 C3.95938869 50.63479286 -1.90208584 50.95359734 -6.75 48.75 C-13.33928571 43.625 -13.33928571 43.625 -14 39 C-10.2862969 39.64029364 -10.2862969 39.64029364 -8.78125 41.53125 C-6.07233576 43.76491612 -3.75020026 43.28960991 -0.3125 43.1875 C0.86699219 43.16042969 2.04648438 43.13335937 3.26171875 43.10546875 C4.61716797 43.05326172 4.61716797 43.05326172 6 43 C6 42.34 6 41.68 6 41 C6.99 40.34 7.98 39.68 9 39 C11.21976026 32.34071922 10.10205775 24.6096789 8 18 C7.00339593 16.66412646 6.00327297 15.33087231 5 14 C4.05078125 11.421875 4.05078125 11.421875 3.3125 8.75 C3.06113281 7.85796875 2.80976563 6.9659375 2.55078125 6.046875 C2.36902344 5.37140625 2.18726563 4.6959375 2 4 C-0.31 4 -2.62 4 -5 4 C-4.0409375 3.8453125 -4.0409375 3.8453125 -3.0625 3.6875 C-2.381875 3.460625 -1.70125 3.23375 -1 3 C-0.67 2.01 -0.34 1.02 0 0 Z " fill="#719DB0" transform="translate(250,341)"/>
<path d="M0 0 C0 1.65 0 3.3 0 5 C-0.92039062 5.06316406 -1.84078125 5.12632812 -2.7890625 5.19140625 C-15.23994996 6.39592184 -25.02756474 9.85914019 -34 19 C-34.99 19.33 -35.98 19.66 -37 20 C-37.70151152 21.3153341 -38.36525925 22.65117592 -39 24 C-40.625 25.75 -40.625 25.75 -42 27 C-44.475 26.01 -44.475 26.01 -47 25 C-46.51126356 20.60137205 -45.22179093 18.94563742 -42 16 C-41.1646875 14.824375 -41.1646875 14.824375 -40.3125 13.625 C-29.58001876 1.44218345 -15.29213311 -0.81533885 0 0 Z " fill="#F5F8F8" transform="translate(321,142)"/>
<path d="M0 0 C3.61125827 0.84638866 6.01756731 2.41363112 8 5.46875 C9.10004737 8.89236682 9.4341247 11.89602104 9 15.46875 C7.01769823 18.6020657 5.60763611 19.95443583 2.05859375 21.08984375 C-1.27886769 21.70413931 -3.66632976 21.60221809 -6.8125 20.34375 C-9.39802885 18.12758242 -10.72774704 16.6493824 -12 13.46875 C-12 8.60010738 -11.69292627 6.47664275 -8.9375 2.46875 C-5.84007399 0.3598642 -3.76426452 -0.28517155 0 0 Z " fill="#3A5560" transform="translate(194,116.53125)"/>
<path d="M0 0 C2.5625 1.5 2.5625 1.5 4.5625 4.5 C4.45609443 8.1661554 4.1896999 9.89202461 1.5234375 12.4765625 C0.67007812 13.02054688 -0.18328125 13.56453125 -1.0625 14.125 C-1.96742188 14.70507812 -2.87234375 15.28515625 -3.8046875 15.8828125 C-5.10792969 16.68332031 -5.10792969 16.68332031 -6.4375 17.5 C-7.10007812 17.95117188 -7.76265625 18.40234375 -8.4453125 18.8671875 C-11.34196261 20.75065954 -13.20798264 21.5 -16.6875 21.5 C-19.89211894 20.33468402 -20.98314464 19.57981134 -22.4375 16.5 C-22.20372008 13.41609461 -21.83693452 11.9208328 -19.6875 9.65625 C-17.29530866 7.89533138 -14.89698487 6.16610265 -12.4375 4.5 C-11.64988281 3.96246094 -10.86226563 3.42492187 -10.05078125 2.87109375 C-4.41281831 -0.64186448 -4.41281831 -0.64186448 0 0 Z " fill="#49626B" transform="translate(393.4375,131.5)"/>
<path d="M0 0 C2.72024475 2.13733516 3.60478876 4.1201891 4.75 7.375 C5.03995743 11.68293891 4.46510831 14.48111461 1.75 17.875 C-2.36450083 19.93225041 -5.73983384 20.28029556 -10.25 19.375 C-13.3125 17.5 -13.3125 17.5 -15.25 14.375 C-16.12725118 10.25866754 -16.45764109 6.2885158 -14.140625 2.6171875 C-9.84079866 -1.42834804 -5.43663234 -1.51017565 0 0 Z " fill="#3E5864" transform="translate(119.25,195.625)"/>
<path d="M0 0 C1 1 1 1 1.0625 4.5625 C1.041875 5.696875 1.02125 6.83125 1 8 C-0.39529129 8.62620916 -1.79126121 9.25090631 -3.1875 9.875 C-4.00992188 10.25011719 -4.83234375 10.62523437 -5.6796875 11.01171875 C-8 12 -8 12 -10.8125 12.6875 C-14.05709294 14.63425577 -14.78770193 17.45201868 -16.10546875 20.90625 C-17 23 -17 23 -19 25 C-22.0625 25.1875 -22.0625 25.1875 -25 25 C-26 24 -26 24 -26.0625 20.9375 C-26.041875 19.968125 -26.02125 18.99875 -26 18 C-25.34 18 -24.68 18 -24 18 C-23.95875 16.989375 -23.9175 15.97875 -23.875 14.9375 C-23.15939539 10.09491536 -20.60691607 7.16781325 -17 4 C-11.67179248 0.19413748 -6.48502069 -0.86561545 0 0 Z " fill="#99C4D4" transform="translate(180,236)"/>
<path d="M0 0 C1.36538653 0.95577057 2.69481525 1.96352976 4 3 C5.11375 3.474375 6.2275 3.94875 7.375 4.4375 C11.01183403 6.00510088 13.95466417 7.46222014 17 10 C18.19381133 13.37076139 18.37565658 15.04833665 17.0625 18.375 C14.43031834 20.44884009 12.29826617 20.50016062 9.00390625 20.32421875 C6.08675205 19.85224253 4.24519318 18.90501239 2 17 C1.1875 14.8125 1.1875 14.8125 1 13 C-0.32 13 -1.64 13 -3 13 C-3 12.34 -3 11.68 -3 11 C-4.32 10.67 -5.64 10.34 -7 10 C-8.33359073 3.57451737 -8.33359073 3.57451737 -6.875 1.0625 C-4.34669829 -0.3702043 -2.86958009 -0.41993855 0 0 Z " fill="#445C66" transform="translate(380,230)"/>
<path d="M0 0 C0.78890625 0.00193359 1.5778125 0.00386719 2.390625 0.00585938 C3.62039063 0.02422852 3.62039063 0.02422852 4.875 0.04296875 C6.10476563 0.04393555 6.10476563 0.04393555 7.359375 0.04492188 C10.85444449 0.07062092 13.52759849 0.11466825 16.875 1.23046875 C16.875 3.54046875 16.875 5.85046875 16.875 8.23046875 C14.47440183 9.43076783 12.98139351 9.34506618 10.3046875 9.328125 C9.40878906 9.32490234 8.51289063 9.32167969 7.58984375 9.31835938 C6.65269531 9.30998047 5.71554687 9.30160156 4.75 9.29296875 C3.80511719 9.28845703 2.86023438 9.28394531 1.88671875 9.27929688 C-0.45058387 9.26749232 -2.78776061 9.25102634 -5.125 9.23046875 C-5.125 8.57046875 -5.125 7.91046875 -5.125 7.23046875 C-5.785 7.23046875 -6.445 7.23046875 -7.125 7.23046875 C-7.3125 4.85546875 -7.3125 4.85546875 -7.125 2.23046875 C-4.06185161 0.18836982 -3.4475707 -0.01969378 0 0 Z " fill="#2A4652" transform="translate(394.125,187.76953125)"/>
<path d="M0 0 C2.375 1.5 2.375 1.5 4 4 C4.58428517 6.9631605 4.39344818 8.90159561 4 12 C1.76234077 14.47740843 -0.65381903 15.80316583 -4 16 C-9.27586207 13.72413793 -9.27586207 13.72413793 -11 12 C-11.28803699 9.07162397 -11.48693199 6.84965878 -11 4 C-7.74010218 0.16482609 -4.95707565 -0.84375756 0 0 Z " fill="#596F77" transform="translate(320,100)"/>
<path d="M0 0 C4.80731132 1.31108491 4.80731132 1.31108491 6.4375 3.9375 C7.29486616 7.03720844 7.69628885 9.09055467 6.75 12.1875 C5.10257222 14.38407038 4.07300724 15.13220612 1.4375 15.9375 C-1.59786365 15.75166141 -3.78512247 15.37801393 -6.4375 13.875 C-8.28420697 10.69456022 -8.18436446 7.45668753 -7.5625 3.9375 C-5.3173484 0.25545138 -4.33137369 -0.07598901 0 0 Z " fill="#566B75" transform="translate(395.5625,158.0625)"/>
<path d="M0 0 C1.875 1.0625 1.875 1.0625 3 3 C3.7895366 6.34034714 4.37829515 8.85684579 3.28515625 12.16015625 C2 14 2 14 -0.0234375 14.75 C-6.2891284 15.41611996 -6.2891284 15.41611996 -9.5625 13.5 C-11.53594974 10.0679135 -11.55680425 7.89762975 -11 4 C-8.10582692 -0.51491 -5.12365602 -0.65210168 0 0 Z " fill="#5B727B" transform="translate(399,210)"/>
<path d="M0 0 C2.52224843 2.27002359 2.94705668 3.63696007 3.4375 7 C3 10 3 10 1.5 12.375 C-2.24099229 14.80664499 -4.57426418 14.49174842 -9 14 C-11 13 -11 13 -12 11 C-12.56866675 6.52524523 -12.54772167 3.82158251 -10 0 C-6.5610429 -1.47383876 -3.54281599 -0.97992783 0 0 Z " fill="#435C65" transform="translate(271,117)"/>
<path d="M0 0 C2.5881216 2.25417042 2.94242643 3.60520979 3.4375 7 C3 10 3 10 1.5 12.375 C-2.26897129 14.82483134 -4.54334931 14.5659239 -9 14 C-11.90460477 11.73077752 -11.97856495 10.15004537 -12.5 6.5 C-12 3 -12 3 -9.9375 0.5 C-6.08739354 -1.46601181 -4.10799908 -1.21718491 0 0 Z " fill="#566D76" transform="translate(372,117)"/>
<path d="M0 0 C4.94049434 4.23470943 7.67497576 9.26050996 8.4375 15.6875 C7.95837091 19.31519168 7.33027194 21.18760283 5 24 C1.04977696 26.37013382 -3.49715908 26.90407917 -8 26 C-10.38472937 24.55302891 -12.00508055 22.99491945 -14 21 C-11.20432366 19.60216183 -9.12566955 20.43264802 -6.16796875 21.0390625 C-2.9118537 20.98039376 -1.43667405 20.1462932 1 18 C1.41205486 15.26936778 1.52429944 13.20283475 1.375 10.5 C1.36082031 9.82324219 1.34664062 9.14648438 1.33203125 8.44921875 C1.24183885 5.40071561 0.96895963 2.90687889 0 0 Z " fill="#719DB0" transform="translate(170,346)"/>
<path d="M0 0 C0.33 0 0.66 0 1 0 C1 1.65 1 3.3 1 5 C0.07960938 5.06316406 -0.84078125 5.12632812 -1.7890625 5.19140625 C-14.12830423 6.38512108 -24.20006494 9.78322591 -33 19 C-33.66 19.33 -34.32 19.66 -35 20 C-35 19.01 -35 18.02 -35 17 C-34.34 17 -33.68 17 -33 17 C-33 16.34 -33 15.68 -33 15 C-32.34 15 -31.68 15 -31 15 C-30.773125 14.0925 -30.54625 13.185 -30.3125 12.25 C-28.7843457 8.46599888 -27.46930347 7.09771838 -24 5 C-21.1875 4.75 -21.1875 4.75 -19 5 C-18.67 4.34 -18.34 3.68 -18 3 C-14.51572262 0.62737302 -11.37353123 0.79252938 -7.25 0.875 C-6.07953125 0.89304688 -4.9090625 0.91109375 -3.703125 0.9296875 C-2.36507812 0.96449219 -2.36507812 0.96449219 -1 1 C-0.505 2.485 -0.505 2.485 0 4 C0 2.68 0 1.36 0 0 Z " fill="#FAF9F2" transform="translate(320,142)"/>
<path d="M0 0 C0.66 0.66 1.32 1.32 2 2 C1.625 5.125 1.625 5.125 1 8 C0.278125 7.896875 -0.44375 7.79375 -1.1875 7.6875 C-5.10975466 8.12330607 -6.29997226 10.23247157 -9 13 C-11.8125 13.8125 -11.8125 13.8125 -14 14 C-14.66 12.35 -15.32 10.7 -16 9 C-15.34 9 -14.68 9 -14 9 C-14 8.34 -14 7.68 -14 7 C-13.34 7 -12.68 7 -12 7 C-12 6.34 -12 5.68 -12 5 C-10 3 -10 3 -7 2 C-7 1.34 -7 0.68 -7 0 C-3.98968256 -0.93423645 -3.13349732 -1.04449911 0 0 Z " fill="#284653" transform="translate(162,219)"/>
<path d="M0 0 C0.66 0 1.32 0 2 0 C2.66 2.31 3.32 4.62 4 7 C4.66 7 5.32 7 6 7 C6 7.66 6 8.32 6 9 C6.66 9 7.32 9 8 9 C10.35563523 12.48224338 12.12277813 16.24555625 14 20 C15.58272601 21.58272601 17.38034003 21.34735747 19.5625 21.5625 C20.38878906 21.64628906 21.21507812 21.73007813 22.06640625 21.81640625 C23.02353516 21.90728516 23.02353516 21.90728516 24 22 C24 22.33 24 22.66 24 23 C17.73 23 11.46 23 5 23 C3.625 15.8125 3.625 15.8125 3.20556641 13.57739258 C2.47417647 9.84225981 1.43456824 6.51157356 0 3 C0 2.01 0 1.02 0 0 Z " fill="#C69566" transform="translate(304,199)"/>
<path d="M0 0 C2 1.3125 2 1.3125 4 4 C4.6544376 7.76446409 4.66446204 11.23657637 4 15 C1.625 18.0625 1.625 18.0625 -1 20 C-1.66 20.66 -2.32 21.32 -3 22 C-5.3828125 21.9765625 -5.3828125 21.9765625 -8.125 21.625 C-9.03507812 21.51414062 -9.94515625 21.40328125 -10.8828125 21.2890625 C-11.58148438 21.19367188 -12.28015625 21.09828125 -13 21 C-13 20.34 -13 19.68 -13 19 C-9.94736336 18.01879536 -8.05263664 18.01879536 -5 19 C-0.78967254 14.11058747 0.14629 11.11803965 0.0625 4.75 C0.05347656 3.85796875 0.04445313 2.9659375 0.03515625 2.046875 C0.02355469 1.37140625 0.01195312 0.6959375 0 0 Z " fill="#CEDBE1" transform="translate(343,351)"/>
<path d="M0 0 C1.32 0.33 2.64 0.66 4 1 C5.25 7.625 5.25 7.625 3 11 C3 11.99 3 12.98 3 14 C0.125 14.125 0.125 14.125 -3 14 C-5.5654594 11.4345406 -5.54046087 9.52313332 -6 6 C-5.195625 5.566875 -4.39125 5.13375 -3.5625 4.6875 C-0.72153646 3.19525998 -0.72153646 3.19525998 0 0 Z " fill="#39545F" transform="translate(292,114)"/>
<path d="M0 0 C1.29808594 -0.02578125 2.59617187 -0.0515625 3.93359375 -0.078125 C8.01375442 0.29080234 10.64915262 1.33665262 13.5625 4.25 C13.60330783 6.24958364 13.60504356 8.25045254 13.5625 10.25 C12.5725 10.745 12.5725 10.745 11.5625 11.25 C11.5625 8.94 11.5625 6.63 11.5625 4.25 C10.5725 4.58 9.5825 4.91 8.5625 5.25 C8.5625 4.59 8.5625 3.93 8.5625 3.25 C2.6225 3.25 -3.3175 3.25 -9.4375 3.25 C-9.7675 3.91 -10.0975 4.57 -10.4375 5.25 C-11.42481742 6.59275169 -12.42344743 7.92732273 -13.4375 9.25 C-13.5625 6.375 -13.5625 6.375 -13.4375 3.25 C-9.6630111 -0.5244889 -5.14258588 0.06116059 0 0 Z " fill="#7E8F98" transform="translate(399.4375,184.75)"/>
<path d="M0 0 C-0.33 0.66 -0.66 1.32 -1 2 C-3.2582226 2.46238376 -5.53325096 2.84341884 -7.8125 3.1875 C-14.61136306 4.34659163 -19.69645874 6.66406838 -25.51171875 10.4765625 C-27.76202871 11.85430329 -29.42636151 12.55398303 -32 13 C-29.754733 8.28168529 -26.83043208 6.40492902 -22.25 4.25 C-21.35667969 3.79560547 -21.35667969 3.79560547 -20.4453125 3.33203125 C-13.73263196 0.06286865 -7.29159048 -0.12792264 0 0 Z " fill="#F2CE9A" transform="translate(321,147)"/>
<path d="M0 0 C6.47669401 5.18135521 12.45776018 10.86483257 15 19 C14.01 18.67 13.02 18.34 12 18 C12 17.34 12 16.68 12 16 C11.01 15.67 10.02 15.34 9 15 C9 13.68 9 12.36 9 11 C8.01 11 7.02 11 6 11 C6 11.99 6 12.98 6 14 C5.34 14 4.68 14 4 14 C3.71125 13.360625 3.4225 12.72125 3.125 12.0625 C2.17176549 9.84793921 2.17176549 9.84793921 0 9 C0 6.03 0 3.06 0 0 Z " fill="#375059" transform="translate(358,146)"/>
<path d="M0 0 C14.32797125 -1.02887028 26.11416438 1.58848556 38 10 C36.68 10.33 35.36 10.66 34 11 C33.505 9.515 33.505 9.515 33 8 C32.28972656 7.95101562 31.57945312 7.90203125 30.84765625 7.8515625 C29.92855469 7.77679688 29.00945312 7.70203125 28.0625 7.625 C26.68771484 7.52058594 26.68771484 7.52058594 25.28515625 7.4140625 C24.15400391 7.20910156 24.15400391 7.20910156 23 7 C22.67 6.34 22.34 5.68 22 5 C18.65747276 4.92572162 16.1964086 4.93453047 13 6 C13 4.35 13 2.7 13 1 C8.71 1 4.42 1 0 1 C0 0.67 0 0.34 0 0 Z " fill="#C1AE8E" transform="translate(308,141)"/>
<path d="M0 0 C0 0.99 0 1.98 0 3 C-0.66 3 -1.32 3 -2 3 C-2.2475 3.61875 -2.495 4.2375 -2.75 4.875 C-4 7 -4 7 -6 7.875 C-8.32792664 8.90803237 -8.32792664 8.90803237 -9.1875 12 C-9.5896875 13.485 -9.5896875 13.485 -10 15 C-10.33 15.66 -10.66 16.32 -11 17 C-11.99 16.67 -12.98 16.34 -14 16 C-14.75 13.8125 -14.75 13.8125 -15 11 C-12.44337138 6.46779471 -5.538214 0 0 0 Z " fill="#566B72" transform="translate(386,134)"/>
<path d="M0 0 C0.99 0.66 1.98 1.32 3 2 C3.11141867 4.96915708 3.04573336 7.68013435 2.8125 10.625 C2.76802734 11.40746094 2.72355469 12.18992188 2.67773438 12.99609375 C2.32711609 18.21641045 1.39163342 22.95861102 0 28 C-0.35191406 29.43472656 -0.35191406 29.43472656 -0.7109375 30.8984375 C-0.93007813 31.71570313 -1.14921875 32.53296875 -1.375 33.375 C-1.58898437 34.20773438 -1.80296875 35.04046875 -2.0234375 35.8984375 C-3.24623369 38.5298949 -4.39304729 38.88715062 -7 40 C-8.26804566 42.0335948 -8.26804566 42.0335948 -9 44 C-9.99 44 -10.98 44 -12 44 C-11.31164062 43.21689453 -11.31164062 43.21689453 -10.609375 42.41796875 C-2.21880849 32.35281439 0.1867417 22.00350885 0.0625 9.1875 C0.05798828 8.30384766 0.05347656 7.42019531 0.04882812 6.50976562 C0.03709866 4.33981441 0.01916495 2.16989828 0 0 Z " fill="#5B5243" transform="translate(366,181)"/>
<path d="M0 0 C-0.51949219 0.24234375 -1.03898437 0.4846875 -1.57421875 0.734375 C-4.95947776 2.3613017 -7.86278963 3.8902317 -10.8125 6.25 C-13 8 -13 8 -16 8 C-17.55394666 9.93513209 -17.55394666 9.93513209 -18.9375 12.375 C-20.94781982 15.7523373 -22.29859991 17.545022 -26 19 C-23.84421748 11.33499549 -17.5521374 5.79764994 -10.8515625 1.96875 C-6.69466758 -0.20616549 -4.55830649 -1.32152583 0 0 Z " fill="#CDDADF" transform="translate(171,227)"/>
<path d="M0 0 C7.92 0 15.84 0 24 0 C24 0.66 24 1.32 24 2 C24.67546875 2.10957031 25.3509375 2.21914062 26.046875 2.33203125 C26.93890625 2.49058594 27.8309375 2.64914063 28.75 2.8125 C29.63171875 2.96332031 30.5134375 3.11414063 31.421875 3.26953125 C34.20506762 4.05810249 35.74302901 5.24032771 38 7 C40.66761764 7.25124826 40.66761764 7.25124826 43 7 C43.33 6.01 43.66 5.02 44 4 C44.495 5.485 44.495 5.485 45 7 C43.375 8.5625 43.375 8.5625 41 10 C37.75 9.6875 37.75 9.6875 35 9 C35 8.34 35 7.68 35 7 C34.41992188 6.80664062 33.83984375 6.61328125 33.2421875 6.4140625 C26 4 26 4 23.34375 2.9375 C18.77637475 1.6569275 14.34790982 1.53669734 9.625 1.375 C8.69816406 1.33632812 7.77132813 1.29765625 6.81640625 1.2578125 C4.5444623 1.16412409 2.27251404 1.07840652 0 1 C0 0.67 0 0.34 0 0 Z " fill="#515045" transform="translate(309,222)"/>
<path d="M0 0 C9.17293916 -0.20464562 18.61763376 0.40253935 27.1015625 4.12109375 C27.1015625 4.45109375 27.1015625 4.78109375 27.1015625 5.12109375 C21.68590855 5.37298463 21.68590855 5.37298463 18.86328125 4.15625 C7.75570527 -0.00712713 -9.22758378 1.09183058 -19.99609375 5.59765625 C-22.30009227 6.23161067 -23.66026181 5.86881391 -25.8984375 5.12109375 C-17.09970088 1.81964807 -9.33314958 0.38992943 0 0 Z " fill="#A6B8BD" transform="translate(233.8984375,154.87890625)"/>
<path d="M0 0 C0 2.66666667 0 5.33333333 0 8 C1.65 7.34 3.3 6.68 5 6 C2.68055212 9.47917182 0.73630036 10.29429766 -3 12 C-4.25664978 9.09399739 -5 7.20395416 -5 4 C-2.5 1.8125 -2.5 1.8125 0 0 Z M-7 7 C-6.34 7.33 -5.68 7.66 -5 8 C-6.98 10.31 -8.96 12.62 -11 15 C-10.34 15.33 -9.68 15.66 -9 16 C-10.98 16.99 -10.98 16.99 -13 18 C-13 14.89448334 -12.4606285 13.64738916 -11 11 C-10.34 11 -9.68 11 -9 11 C-9 10.01 -9 9.02 -9 8 C-8.34 7.67 -7.68 7.34 -7 7 Z " fill="#2A4551" transform="translate(281,141)"/>
<path d="M0 0 C4.80705201 7.21057802 5.07490238 17.1251025 3.546875 25.4765625 C3.08778145 27.33261213 2.55257248 29.16960366 2 31 C1.67 31 1.34 31 1 31 C0.67 20.77 0.34 10.54 0 0 Z " fill="#D8E7E9" transform="translate(379,253)"/>
<path d="M0 0 C2.5625 1.375 2.5625 1.375 4 3 C4 3.66 4 4.32 4 5 C2.68 5.33 1.36 5.66 0 6 C-0.33 4.35 -0.66 2.7 -1 1 C-3.31 1 -5.62 1 -8 1 C-8.28875 1.639375 -8.5775 2.27875 -8.875 2.9375 C-10 5 -10 5 -12 6 C-12.08927756 9.21399233 -11.8534403 11.9062789 -11 15 C-11 15.66 -11 16.32 -11 17 C-11.66 17 -12.32 17 -13 17 C-15.23244396 12.66643232 -15.25804803 9.69671265 -14 5 C-10.25081236 -0.50661934 -6.23715226 -1.09382894 0 0 Z " fill="#8E9FA6" transform="translate(147,149)"/>
<path d="M0 0 C0.99 0 1.98 0 3 0 C1.90420182 6.30083955 -1.12609342 10.02592949 -5.22265625 14.86328125 C-7.03116802 16.87219989 -7.03116802 16.87219989 -8 19 C-8.66 19 -9.32 19 -10 19 C-8.62134424 14.29971248 -6.62045357 10.27404762 -4.0625 6.125 C-3.71509766 5.53203125 -3.36769531 4.9390625 -3.00976562 4.328125 C-1.97265625 2.6328125 -1.97265625 2.6328125 0 0 Z " fill="#74868D" transform="translate(239,337)"/>
<path d="M0 0 C0.66 0 1.32 0 2 0 C1.44208445 3.4869722 -0.17951661 6.12459407 -1.9453125 9.140625 C-4.78873007 14.15346486 -6.42446656 18.19895702 -6 24 C-3.36 24.33 -0.72 24.66 2 25 C1.34 25.66 0.68 26.32 0 27 C-3.5 26.8125 -3.5 26.8125 -7 26 C-9 23 -9 23 -8.87890625 19.83984375 C-7.84155554 15.30777375 -6.10174451 11.64802547 -3.9375 7.5625 C-3.37192383 6.46518555 -3.37192383 6.46518555 -2.79492188 5.34570312 C-1.87240704 3.55906047 -0.9374688 1.77884171 0 0 Z " fill="#98AAAF" transform="translate(343,101)"/>
<path d="M0 0 C0.25 2.3125 0.25 2.3125 0 5 C-1.75 6.8125 -1.75 6.8125 -4 8 C-5.32 8 -6.64 8 -8 8 C-8.226875 8.598125 -8.45375 9.19625 -8.6875 9.8125 C-10.33811133 12.56351888 -12.1972081 13.52484637 -15 15 C-14.34 13.35 -13.68 11.7 -13 10 C-12.34 10 -11.68 10 -11 10 C-10.7421875 9.40703125 -10.484375 8.8140625 -10.21875 8.203125 C-8.90230105 5.82339035 -7.57419218 4.49021208 -5.5 2.75 C-4.8915625 2.22921875 -4.283125 1.7084375 -3.65625 1.171875 C-2 0 -2 0 0 0 Z " fill="#546972" transform="translate(194,169)"/>
<path d="M0 0 C5.47063273 2.00962019 10.13179125 4.53079837 14 9 C14.6953125 11.19140625 14.6953125 11.19140625 15 13 C13.02 13.99 13.02 13.99 11 15 C8 10.25 8 10.25 8 8 C7.34 8 6.68 8 6 8 C5.525625 7.195625 5.05125 6.39125 4.5625 5.5625 C3.20016328 2.7081924 3.20016328 2.7081924 0 2 C0 1.34 0 0.68 0 0 Z " fill="#BED4DC" transform="translate(334,236)"/>
<path d="M0 0 C3.26568788 2.72308128 4.86187313 6.31596302 6.6875 10.0625 C7.00783203 10.69994141 7.32816406 11.33738281 7.65820312 11.99414062 C10 16.73265925 10 16.73265925 10 19 C8.68 19.33 7.36 19.66 6 20 C4.99513105 17.04329782 3.99693976 14.08438423 3 11.125 C2.71382813 10.28324219 2.42765625 9.44148437 2.1328125 8.57421875 C1.86210937 7.76855469 1.59140625 6.96289062 1.3125 6.1328125 C1.06113281 5.38918457 0.80976563 4.64555664 0.55078125 3.87939453 C0 2 0 2 0 0 Z " fill="#C7D5D9" transform="translate(373,165)"/>
<path d="M0 0 C3.5625 0.25 3.5625 0.25 6.5625 2.25 C6.2325 2.91 5.9025 3.57 5.5625 4.25 C4.5725 3.59 3.5825 2.93 2.5625 2.25 C-0.21378812 1.90296398 -1.74820148 1.72319121 -4.01171875 3.453125 C-5.78330996 5.68581529 -6.14953898 7.53894198 -6.75 10.3125 C-7.4765625 12.99609375 -7.4765625 12.99609375 -8.4375 15.25 C-11.625 16.875 -11.625 16.875 -14.4375 17.25 C-13.06416848 13.42527171 -11.29622294 10.36571157 -8.9375 7.0625 C-8.3290625 6.20269531 -7.720625 5.34289062 -7.09375 4.45703125 C-3.96542811 0.28839477 -3.96542811 0.28839477 0 0 Z " fill="#7F9299" transform="translate(165.4375,322.75)"/>
<path d="M0 0 C5.06794582 4.32265967 8.54603986 9.80974716 11 16 C10.6640625 18.33984375 10.6640625 18.33984375 10 20 C10 19.34 10 18.68 10 18 C9.20980469 17.79117188 8.41960937 17.58234375 7.60546875 17.3671875 C5 16 5 16 3.92578125 13.3203125 C3.72339844 12.26585937 3.52101563 11.21140625 3.3125 10.125 C2.57175463 6.4258176 1.86992325 3.29424776 0 0 Z " fill="#C1986D" transform="translate(353,158)"/>
<path d="M0 0 C0.99 0.99 1.98 1.98 3 3 C1.375 8.75 1.375 8.75 -2 11 C-6.88470231 10.78762164 -9.4273339 9.25743085 -13 6 C-11.68 6 -10.36 6 -9 6 C-9 6.66 -9 7.32 -9 8 C-6.36 7.34 -3.72 6.68 -1 6 C-0.67 4.02 -0.34 2.04 0 0 Z " fill="#6C8086" transform="translate(260,142)"/>
<path d="M0 0 C1.14982602 4.09003859 1.11094256 8.03177051 1.0625 12.25 C1.05798828 12.99507813 1.05347656 13.74015625 1.04882812 14.5078125 C1.03709246 16.3385764 1.0191585 18.16929873 1 20 C2.32 20.66 3.64 21.32 5 22 C5 23.65 5 25.3 5 27 C4.34 27 3.68 27 3 27 C-1.32792907 19.74024802 -2.57574229 14.5156301 -2 6 C-1 2.375 -1 2.375 0 0 Z " fill="#8C9EA4" transform="translate(314,350)"/>
<path d="M0 0 C2 3 2 3 2 5 C2.66 5 3.32 5 4 5 C4 5.66 4 6.32 4 7 C4.66 7 5.32 7 6 7 C6 7.66 6 8.32 6 9 C7.65 9.33 9.3 9.66 11 10 C11.33 11.98 11.66 13.96 12 16 C7.31005031 12.61346065 2.99225932 9.2140515 -1 5 C-1.763125 4.236875 -2.52625 3.47375 -3.3125 2.6875 C-3.869375 2.130625 -4.42625 1.57375 -5 1 C-3.35 0.67 -1.7 0.34 0 0 Z " fill="#CCAB7C" transform="translate(282,167)"/>
<path d="M0 0 C0 1.32 0 2.64 0 4 C-1.32 3.67 -2.64 3.34 -4 3 C-3.01 3 -2.02 3 -1 3 C-1 2.34 -1 1.68 -1 1 C-3.08410658 1.08733973 -5.16734669 1.19552278 -7.25 1.3125 C-8.41015625 1.37050781 -9.5703125 1.42851562 -10.765625 1.48828125 C-14.15084955 2.02386629 -15.48327928 2.77322406 -18 5 C-21.30763117 6.2127981 -24.50489687 6.07943416 -28 6 C-20.51730811 -1.48269189 -9.73449717 -0.43479144 0 0 Z " fill="#D5DEDD" transform="translate(320,142)"/>
<path d="M0 0 C2.93451379 2.75627868 5.11897397 5.48641158 7.1875 8.9375 C7.69667969 9.77152344 8.20585937 10.60554688 8.73046875 11.46484375 C10.00566478 14.01131214 10.58356496 16.19533506 11 19 C10.34 19 9.68 19 9 19 C9 18.34 9 17.68 9 17 C8.34 17 7.68 17 7 17 C6.74605469 16.39671875 6.49210937 15.7934375 6.23046875 15.171875 C4.12776833 10.21185924 4.12776833 10.21185924 1.25 5.6875 C0 4 0 4 0 0 Z " fill="#B8CACE" transform="translate(269,347)"/>
<path d="M0 0 C2.76888373 1.52438545 5.39663624 3.20936148 8 5 C5 6 5 6 2 5 C1.566875 4.484375 1.13375 3.96875 0.6875 3.4375 C-1.78583126 1.33058819 -3.8637368 1.79091579 -7 2 C-7 4.97 -7 7.94 -7 11 C-7.66 11 -8.32 11 -9 11 C-10.54163175 7.9167365 -10.29747535 5.39121901 -10 2 C-6.98195863 -1.71451245 -4.34901039 -1.33815704 0 0 Z " fill="#A2AFB4" transform="translate(246,132)"/>
<path d="M0 0 C0.33 0 0.66 0 1 0 C1.103125 0.763125 1.20625 1.52625 1.3125 2.3125 C2.04364039 5.17059424 2.76951913 6.15742885 5 8 C4 11 4 11 2 12 C1.6059614 14.41890149 1.6059614 14.41890149 1.5 17.25 C1.28307474 21.26311731 0.66137311 24.32890136 -1 28 C-2 25 -2 25 -1 22 C-0.85222064 20.30132812 -0.75252934 18.59822511 -0.68359375 16.89453125 C-0.62075195 15.42016602 -0.62075195 15.42016602 -0.55664062 13.91601562 C-0.51732422 12.89185547 -0.47800781 11.86769531 -0.4375 10.8125 C-0.39431641 9.77673828 -0.35113281 8.74097656 -0.30664062 7.67382812 C-0.20055634 5.1160181 -0.09849854 2.55811155 0 0 Z " fill="#E4A265" transform="translate(359,170)"/>
<path d="M0 0 C3.70649314 0.63070862 6.14618878 2.27668656 9.1875 4.4375 C10.06792969 5.05496094 10.94835937 5.67242187 11.85546875 6.30859375 C14 8 14 8 15 10 C12.75 10.25 12.75 10.25 10 10 C8.6256709 8.70896357 7.29103643 7.3743291 6 6 C5.29875 5.855625 4.5975 5.71125 3.875 5.5625 C3.25625 5.376875 2.6375 5.19125 2 5 C0.75 2.4375 0.75 2.4375 0 0 Z " fill="#576A70" transform="translate(343,136)"/>
<path d="M0 0 C2.39286884 2.39286884 2.32050616 3.09447094 2.375 6.375 C2.28881712 9.52827945 2.1431273 10.77099631 0.4375 13.5 C-2.80441856 15.49502681 -5.20186307 15.86902976 -9 16 C-12.4375 15.0625 -12.4375 15.0625 -15 14 C-12.24273791 13.11767613 -10.45716378 13.03877402 -7.5 13.25 C-3.92794394 13.33352043 -3.92794394 13.33352043 -1.5625 11 C0.51685114 7.00764582 0.30231166 4.45909693 0 0 Z " fill="#A1B4BB" transform="translate(151,154)"/>
<path d="M0 0 C0.66 0.33 1.32 0.66 2 1 C1.54857119 2.29409592 1.08858979 3.58521059 0.625 4.875 C0.36976563 5.59429687 0.11453125 6.31359375 -0.1484375 7.0546875 C-1 9 -1 9 -3 11 C-6.0625 11.1875 -6.0625 11.1875 -9 11 C-10 10 -10 10 -10.0625 6.9375 C-10.041875 5.968125 -10.02125 4.99875 -10 4 C-9.34 4 -8.68 4 -8 4 C-8 5.98 -8 7.96 -8 10 C-7.01 9.67 -6.02 9.34 -5 9 C-4.67 8.34 -4.34 7.68 -4 7 C-3.34 7 -2.68 7 -2 7 C-1.855625 6.030625 -1.71125 5.06125 -1.5625 4.0625 C-1 1 -1 1 0 0 Z " fill="#A6C7D1" transform="translate(164,250)"/>
<path d="M0 0 C2.4375 1 2.4375 1 4 2 C3.67 2.66 3.34 3.32 3 4 C2.40832031 3.89300781 1.81664063 3.78601563 1.20703125 3.67578125 C-2.52819309 3.10909958 -5.37943222 2.83535957 -9.0625 3.8125 C-11.88606305 7.00039376 -11.38231214 9.79325191 -11.17578125 13.91796875 C-11.11777344 14.60503906 -11.05976562 15.29210937 -11 16 C-11.66 15.67 -12.32 15.34 -13 15 C-13.89542658 6.4602835 -13.89542658 6.4602835 -11.91015625 3.22265625 C-8.16107445 -0.2082011 -4.88272571 -0.63294593 0 0 Z " fill="#90A0A4" transform="translate(117,195)"/>
<path d="M0 0 C0.928125 0.061875 1.85625 0.12375 2.8125 0.1875 C0.11295495 2.3055104 -2.5794607 3.98958715 -5.625 5.5625 C-9.52050867 7.67738837 -12.25786338 9.87984575 -15.1875 13.1875 C-15.5175 12.1975 -15.8475 11.2075 -16.1875 10.1875 C-15.5275 10.1875 -14.8675 10.1875 -14.1875 10.1875 C-14.1875 9.5275 -14.1875 8.8675 -14.1875 8.1875 C-13.5275 8.1875 -12.8675 8.1875 -12.1875 8.1875 C-11.8575 7.1975 -11.5275 6.2075 -11.1875 5.1875 C-9.53311387 4.49091637 -7.86495682 3.82653117 -6.1875 3.1875 C-5.713125 2.65125 -5.23875 2.115 -4.75 1.5625 C-3.1875 0.1875 -3.1875 0.1875 0 0 Z " fill="#FCF2DE" transform="translate(301.1875,148.8125)"/>
<path d="M0 0 C-0.49371094 0.32613281 -0.98742187 0.65226563 -1.49609375 0.98828125 C-2.13675781 1.42527344 -2.77742187 1.86226562 -3.4375 2.3125 C-4.07558594 2.74175781 -4.71367187 3.17101562 -5.37109375 3.61328125 C-7.2885684 5.0034052 -7.2885684 5.0034052 -8 8 C-10.5625 9.6875 -10.5625 9.6875 -13 11 C-13.33 10.01 -13.66 9.02 -14 8 C-11.59038723 3.91413487 -5.07482544 -2.53741272 0 0 Z " fill="#AECDD9" transform="translate(173,237)"/>
<path d="M0 0 C0.99 0.33 1.98 0.66 3 1 C2.525625 1.7425 2.05125 2.485 1.5625 3.25 C0.22130673 5.61050015 -0.512312 7.36648477 -1 10 C-1.66 10 -2.32 10 -3 10 C-2.67 12.31 -2.34 14.62 -2 17 C-2.66 17 -3.32 17 -4 17 C-5.125 14.1875 -5.125 14.1875 -6 11 C-5.34 10.01 -4.68 9.02 -4 8 C-3.67 6.989375 -3.34 5.97875 -3 4.9375 C-2 2 -2 2 0 0 Z " fill="#DFF0F4" transform="translate(157,244)"/>
<path d="M0 0 C2.625 0.375 2.625 0.375 5 1 C4.67 2.65 4.34 4.3 4 6 C2.35 6.33 0.7 6.66 -1 7 C-1.625 4.625 -1.625 4.625 -2 2 C-1.34 1.34 -0.68 0.68 0 0 Z " fill="#DDEEF5" transform="translate(160,349)"/>
<path d="M0 0 C2.73612205 1.00834312 3.79147784 1.56789994 5.08203125 4.2421875 C5.32308594 5.11101562 5.56414062 5.97984375 5.8125 6.875 C6.06644531 7.73867188 6.32039063 8.60234375 6.58203125 9.4921875 C7.00967476 12.05804858 6.83278283 13.56396859 6 16 C5.3291288 14.3767313 4.66342971 12.75132422 4 11.125 C3.62875 10.22007812 3.2575 9.31515625 2.875 8.3828125 C2 6 2 6 2 4 C-0.31 4 -2.62 4 -5 4 C-4.0409375 3.8453125 -4.0409375 3.8453125 -3.0625 3.6875 C-2.381875 3.460625 -1.70125 3.23375 -1 3 C-0.67 2.01 -0.34 1.02 0 0 Z " fill="#7EA2B4" transform="translate(250,341)"/>
<path d="M0 0 C3.65430518 1.82715259 4.71325584 6.28682398 6 10 C6.25 13.5625 6.25 13.5625 6 16 C4.02 16.99 4.02 16.99 2 18 C1.67 17.01 1.34 16.02 1 15 C1.66 14.34 2.32 13.68 3 13 C2.91256309 9.47105052 2.91256309 9.47105052 2 6 C1.01 5.34 0.02 4.68 -1 4 C-0.67 2.68 -0.34 1.36 0 0 Z " fill="#7C8E93" transform="translate(293,109)"/>
<path d="M0 0 C0.99 0.33 1.98 0.66 3 1 C2.8125 2.8125 2.8125 2.8125 2 5 C1.195625 5.45375 0.39125 5.9075 -0.4375 6.375 C-3.73621742 8.46686958 -4.09396796 10.29350529 -5 14 C-5.99 14 -6.98 14 -8 14 C-6.6744419 10.37723685 -5.05653045 7.36494652 -2.875 4.1875 C-2.33617187 3.39730469 -1.79734375 2.60710937 -1.2421875 1.79296875 C-0.83226562 1.20128906 -0.42234375 0.60960937 0 0 Z " fill="#66787D" transform="translate(323,336)"/>
<path d="M0 0 C0.66 0 1.32 0 2 0 C2 0.99 2 1.98 2 3 C0.68 3.33 -0.64 3.66 -2 4 C-2 4.99 -2 5.98 -2 7 C-2.78375 7.61875 -3.5675 8.2375 -4.375 8.875 C-7.18083706 11.14639191 -7.96334332 12.60730542 -9 16 C-10.32 15.67 -11.64 15.34 -13 15 C-12.34 15 -11.68 15 -11 15 C-10.814375 14.34 -10.62875 13.68 -10.4375 13 C-8.39191226 8.73094732 -5.42815357 5.25836294 -2 2 C-1.34 2 -0.68 2 0 2 C0 1.34 0 0.68 0 0 Z " fill="#849397" transform="translate(274,145)"/>
<path d="M0 0 C1.65 0.33 3.3 0.66 5 1 C5.66 2.98 6.32 4.96 7 7 C4.69 7 2.38 7 0 7 C-1.125 2.25 -1.125 2.25 0 0 Z " fill="#E19A58" transform="translate(311,213)"/>
<path d="M0 0 C0.33 0 0.66 0 1 0 C1.45535252 3.91603168 1.3204188 5.54941106 -1 8.8125 C-5.00317827 11.73148415 -7.05041562 12 -12 12 C-15 10.5625 -15 10.5625 -17 9 C-14 9 -14 9 -11.87890625 9.17578125 C-9.50561328 9.31585756 -7.35458011 9.34488425 -5 9 C-2.04430564 6.33987508 -0.58378312 3.94053603 0 0 Z " fill="#9EB6BD" transform="translate(202,126)"/>
<path d="M0 0 C-0.99 0.33 -1.98 0.66 -3 1 C-3.28875 1.763125 -3.5775 2.52625 -3.875 3.3125 C-5.2648116 6.63260549 -7.10507099 7.94307675 -10 10 C-10.125 4.25 -10.125 4.25 -9 2 C-5.93853104 0.03191281 -3.59835033 -0.19990835 0 0 Z " fill="#2F4652" transform="translate(194,119)"/>
<path d="M0 0 C1.66611905 -0.042721 3.33382885 -0.04063832 5 0 C6 1 6 1 6.0625 3.5625 C6.041875 4.366875 6.02125 5.17125 6 6 C4.35 6.33 2.7 6.66 1 7 C0.67 4.69 0.34 2.38 0 0 Z " fill="#E5F3F8" transform="translate(245,345)"/>
<path d="M0 0 C1.485 0.99 1.485 0.99 3 2 C3.08384156 5.00631872 2.99996536 7.76928099 2.75 10.75 C2.69714844 11.54921875 2.64429688 12.3484375 2.58984375 13.171875 C2.28382668 17.49881406 1.79866501 21.73127324 1 26 C0.67 26 0.34 26 0 26 C0 17.42 0 8.84 0 0 Z " fill="#454A47" transform="translate(366,181)"/>
<path d="M0 0 C-0.57344937 2.86724686 -0.8614515 3.8614515 -3 6 C-4.2065625 5.9690625 -4.2065625 5.9690625 -5.4375 5.9375 C-8.06287821 5.73718542 -8.06287821 5.73718542 -9.8125 7.5 C-10.4003125 8.2425 -10.4003125 8.2425 -11 9 C-11.66 8.67 -12.32 8.34 -13 8 C-11.92130607 7.03644756 -10.83681257 6.07938583 -9.75 5.125 C-8.84507812 4.32449219 -8.84507812 4.32449219 -7.921875 3.5078125 C-5.41154782 1.53832817 -3.24789041 0 0 0 Z " fill="#748B90" transform="translate(289,136)"/>
<path d="M0 0 C2.67774326 2.40996893 2.97847801 3.62695218 3.1875 7.25 C3.125625 8.1575 3.06375 9.065 3 10 C2.01 10.495 2.01 10.495 1 11 C0.67 8.03 0.34 5.06 0 2 C-3.3 2 -6.6 2 -10 2 C-10 1.34 -10 0.68 -10 0 C-6.40923823 -1.242956 -3.64684786 -1.0087026 0 0 Z " fill="#A1AFB1" transform="translate(271,117)"/>
<path d="M0 0 C3.3104925 2.94111124 4.85717904 5.45570213 6.3125 9.625 C6.65925781 10.58664063 7.00601562 11.54828125 7.36328125 12.5390625 C8 15 8 15 7 17 C6.67 15.68 6.34 14.36 6 13 C5.34 13 4.68 13 4 13 C3.566875 11.6078125 3.566875 11.6078125 3.125 10.1875 C2.1125 6.90208333 2.1125 6.90208333 0 4 C0 2.68 0 1.36 0 0 Z " fill="#5F5A4D" transform="translate(299,192)"/>
<path d="M0 0 C0 1.65 0 3.3 0 5 C-1.98 5 -3.96 5 -6 5 C-6 3.35 -6 1.7 -6 0 C-3.50907189 -1.24546405 -2.58919267 -0.7767578 0 0 Z " fill="#E1F1F6" transform="translate(248,357)"/>
<path d="M0 0 C0.433125 0.598125 0.86625 1.19625 1.3125 1.8125 C2.77989559 3.71467946 4.26869038 5.34396471 6 7 C8.6855594 9.6855594 9.06049974 12.37621328 10 16 C9.34 15.67 8.68 15.34 8 15 C8 14.34 8 13.68 8 13 C7.34 13 6.68 13 6 13 C4.4921875 10.91796875 4.4921875 10.91796875 2.875 8.1875 C2.33617187 7.29417969 1.79734375 6.40085937 1.2421875 5.48046875 C0 3 0 3 0 0 Z " fill="#8F9DA4" transform="translate(132,280)"/>
<path d="M0 0 C3.05675241 4.58512862 3.11219208 7.77106324 3.0625 13.1875 C3.05347656 14.45980469 3.04445313 15.73210937 3.03515625 17.04296875 C3.02355469 18.01878906 3.01195312 18.99460938 3 20 C2.67 20 2.34 20 2 20 C1.92652344 19.12988281 1.92652344 19.12988281 1.8515625 18.2421875 C1.4962501 14.52978549 1.10154775 11.29336018 -0.125 7.75 C-1.09759656 4.69326794 -0.89389539 3.03924434 0 0 Z " fill="#D3DFE4" transform="translate(294,208)"/>
<path d="M0 0 C0.66 0.33 1.32 0.66 2 1 C-3.08922561 4.16357268 -6.56271687 5.15398166 -12.5625 5.1875 C-13.71878906 5.20167969 -14.87507812 5.21585937 -16.06640625 5.23046875 C-19 5 -19 5 -21 3 C-19.68 2.67 -18.36 2.34 -17 2 C-17 2.66 -17 3.32 -17 4 C-14.91549283 3.7168444 -12.83241633 3.42314331 -10.75 3.125 C-9.58984375 2.96257812 -8.4296875 2.80015625 -7.234375 2.6328125 C-4.39144286 2.07658665 -2.53340767 1.28994611 0 0 Z " fill="#5B7A83" transform="translate(179,379)"/>
<path d="M0 0 C3.48331435 3.01887244 4.79157144 5.56909529 6 10 C5.34 10 4.68 10 4 10 C3.34 9.01 2.68 8.02 2 7 C1.01 7.33 0.02 7.66 -1 8 C-1.125 2.25 -1.125 2.25 0 0 Z " fill="#C6DBDD" transform="translate(280,364)"/>
<path d="M0 0 C0.33 1.32 0.66 2.64 1 4 C1.99 3.67 2.98 3.34 4 3 C4.66 3.66 5.32 4.32 6 5 C5.01 5.99 4.02 6.98 3 8 C0.525 7.01 0.525 7.01 -2 6 C-1.125 1.125 -1.125 1.125 0 0 Z " fill="#DBE0DB" transform="translate(276,161)"/>
<path d="M0 0 C1.35665057 2.71330113 1 4.98001855 1 8 C1.291224 9.67453799 1.61070799 11.34550895 2 13 C-1.04049801 9.35140239 -2.96518762 5.2555467 -5 1 C-3.35 0.67 -1.7 0.34 0 0 Z " fill="#3E4A4B" transform="translate(361,159)"/>
<path d="M0 0 C0 0.66 0 1.32 0 2 C-0.99 2 -1.98 2 -3 2 C-3.309375 2.61875 -3.61875 3.2375 -3.9375 3.875 C-4.625 5.25 -5.3125 6.625 -6 8 C-6.66 8 -7.32 8 -8 8 C-8.33 8.66 -8.66 9.32 -9 10 C-9.99 10 -10.98 10 -12 10 C-10.58426179 6.60812721 -8.95769034 4.90302459 -6 2.75 C-5.29875 2.22921875 -4.5975 1.7084375 -3.875 1.171875 C-2 0 -2 0 0 0 Z " fill="#C9D5DA" transform="translate(292,148)"/>
<path d="M0 0 C2.3894658 1.44374039 4.00320659 3.00320659 6 5 C5.67 6.32 5.34 7.64 5 9 C4.566875 8.21625 4.13375 7.4325 3.6875 6.625 C2.10779753 3.78301625 2.10779753 3.78301625 -1 2 C-2.9896995 1.60986284 -4.99019869 1.26797351 -7 1 C-7.33 1.99 -7.66 2.98 -8 4 C-8.99 4 -9.98 4 -11 4 C-11 3.34 -11 2.68 -11 2 C-7.31771085 -0.45485943 -4.27545652 -0.82932584 0 0 Z " fill="#B0C1C4" transform="translate(196,117)"/>
<path d="M0 0 C7 8.44827586 7 8.44827586 7 12 C6.34 12 5.68 12 5 12 C4.34 11.01 3.68 10.02 3 9 C2.01 8.67 1.02 8.34 0 8 C0 5.36 0 2.72 0 0 Z " fill="#8FA1A6" transform="translate(262,335)"/>
<path d="M0 0 C0.33 0 0.66 0 1 0 C1.25 2.25 1.25 2.25 1 5 C-0.33333333 6.33333333 -1.66666667 7.66666667 -3 9 C-4.20826248 11.62380011 -5.08405806 14.25217417 -6 17 C-7.23306978 14.07323092 -7.01493635 13.03773655 -5.8203125 10.01953125 C-5.26085937 8.96121094 -4.70140625 7.90289062 -4.125 6.8125 C-3.57070312 5.74644531 -3.01640625 4.68039063 -2.4453125 3.58203125 C-1 1 -1 1 0 0 Z " fill="#8D9DA3" transform="translate(137,234)"/>
<path d="M0 0 C0 0.66 0 1.32 0 2 C-7.90322581 9 -7.90322581 9 -13 9 C-11.54405245 7.68485396 -10.08516421 6.37296283 -8.625 5.0625 C-7.81289062 4.33160156 -7.00078125 3.60070312 -6.1640625 2.84765625 C-2.82875264 0 -2.82875264 0 0 0 Z " fill="#829196" transform="translate(155,219)"/>
<path d="M0 0 C1.85625 0.061875 1.85625 0.061875 3.75 0.125 C3.75 0.455 3.75 0.785 3.75 1.125 C5.4 1.455 7.05 1.785 8.75 2.125 C8.75 2.785 8.75 3.445 8.75 4.125 C3.14 3.465 -2.47 2.805 -8.25 2.125 C-4.63863788 0.31931894 -3.705469 -0.12351563 0 0 Z " fill="#E9BE7F" transform="translate(327.25,218.875)"/>
<path d="M0 0 C0.66 0.33 1.32 0.66 2 1 C-6.07744875 7.70387244 -6.07744875 7.70387244 -12 8 C-9.72254211 5.51017465 -7.37664762 3.89631003 -4.4375 2.25 C-3.65246094 1.80140625 -2.86742187 1.3528125 -2.05859375 0.890625 C-1.37925781 0.59671875 -0.69992188 0.3028125 0 0 Z " fill="#87989B" transform="translate(206,161)"/>
<path d="M0 0 C0.66 0.33 1.32 0.66 2 1 C-0.36975637 4.72390287 -2.64962537 8.09634199 -6 11 C-6.66 11 -7.32 11 -8 11 C-6.63859873 6.54450493 -4.69243386 4.74565595 -1 2 C-0.67 1.34 -0.34 0.68 0 0 Z " fill="#E7EDEF" transform="translate(151,240)"/>
<path d="M0 0 C0.99 0.33 1.98 0.66 3 1 C2.34 1 1.68 1 1 1 C1 1.66 1 2.32 1 3 C-0.42578125 4.5078125 -0.42578125 4.5078125 -2.3125 6.125 C-3.23482422 6.93324219 -3.23482422 6.93324219 -4.17578125 7.7578125 C-6 9 -6 9 -9 9 C-7.49450444 4.78461243 -4.70682435 3.28718949 -1 1 C-0.67 0.67 -0.34 0.34 0 0 Z " fill="#52676F" transform="translate(147,225)"/>
<path d="M0 0 C0.33 0 0.66 0 1 0 C1.3690205 9.41002278 1.3690205 9.41002278 -1 14 C-1.33 14 -1.66 14 -2 14 C-2.3690205 4.58997722 -2.3690205 4.58997722 0 0 Z " fill="#CF9566" transform="translate(364,199)"/>
<path d="M0 0 C0.66 0.33 1.32 0.66 2 1 C1.3503125 1.5878125 1.3503125 1.5878125 0.6875 2.1875 C-1.12512666 3.98638626 -1.12512666 3.98638626 -2.375 6.5 C-4.23372362 9.35957481 -5.99839562 10.45863559 -9 12 C-8.34 10.35 -7.68 8.7 -7 7 C-6.34 7 -5.68 7 -5 7 C-4.731875 6.401875 -4.46375 5.80375 -4.1875 5.1875 C-3.01506533 3.02775192 -1.80630718 1.64209744 0 0 Z " fill="#A0ACB0" transform="translate(188,172)"/>
<path d="M0 0 C0.60546875 1.83203125 0.60546875 1.83203125 1 4 C-0.78013629 6.83503187 -1.93112692 8.66406846 -5.1875 9.6875 C-5.785625 9.790625 -6.38375 9.89375 -7 10 C-7.33 10.66 -7.66 11.32 -8 12 C-7.41463247 8.33939179 -5.916761 6.45464836 -3.4375 3.75 C-2.79683594 3.04359375 -2.15617187 2.3371875 -1.49609375 1.609375 C-0.75552734 0.81273437 -0.75552734 0.81273437 0 0 Z " fill="#8CACB3" transform="translate(366,229)"/>
<path d="M0 0 C0.886875 0.103125 1.77375 0.20625 2.6875 0.3125 C0.31805987 2.93135488 -2.14983102 4.73116551 -5.3125 6.3125 C-6.3025 5.9825 -7.2925 5.6525 -8.3125 5.3125 C-4.12788462 0.38942308 -4.12788462 0.38942308 0 0 Z " fill="#F0C891" transform="translate(297.3125,153.6875)"/>
<path d="M0 0 C1.22589844 0.29197266 1.22589844 0.29197266 2.4765625 0.58984375 C3.41628906 0.82380859 3.41628906 0.82380859 4.375 1.0625 C4.045 1.7225 3.715 2.3825 3.375 3.0625 C0.075 2.7325 -3.225 2.4025 -6.625 2.0625 C-6.625 1.4025 -6.625 0.7425 -6.625 0.0625 C-3.99249612 -1.25375194 -2.82320944 -0.68563658 0 0 Z " fill="#B9CACE" transform="translate(336.625,369.9375)"/>
<path d="M0 0 C1.32 0 2.64 0 4 0 C4.4125 0.928125 4.825 1.85625 5.25 2.8125 C6.93441786 5.88054681 8.08454083 7.19040465 11 9 C10.67 9.66 10.34 10.32 10 11 C8.70145279 9.92492371 7.41141639 8.83956264 6.125 7.75 C5.40570313 7.14671875 4.68640625 6.5434375 3.9453125 5.921875 C2.02947882 4.02912366 1.03550955 2.46342273 0 0 Z " fill="#D2E1E6" transform="translate(161,311)"/>
<path d="M0 0 C2.475 0.495 2.475 0.495 5 1 C5.33 2.65 5.66 4.3 6 6 C6.99 6.33 7.98 6.66 9 7 C9 7.66 9 8.32 9 9 C8.34 9 7.68 9 7 9 C7 8.34 7 7.68 7 7 C6.360625 6.731875 5.72125 6.46375 5.0625 6.1875 C3 5 3 5 2 2 C1.34 2 0.68 2 0 2 C0 1.34 0 0.68 0 0 Z " fill="#C6D8DB" transform="translate(153,381)"/>
<path d="M0 0 C0.2475 0.61875 0.495 1.2375 0.75 1.875 C2.20628639 4.35068687 3.37812506 4.95125002 6 6 C6 7.65 6 9.3 6 11 C5.34 11 4.68 11 4 11 C0 4.5 0 4.5 0 0 Z " fill="#7F8E96" transform="translate(313,366)"/>
<path d="M0 0 C0.99 0.33 1.98 0.66 3 1 C3.6875 3.0625 3.6875 3.0625 4 5 C2.35 4.67 0.7 4.34 -1 4 C-1.33 5.65 -1.66 7.3 -2 9 C-2.99 8.67 -3.98 8.34 -5 8 C-3.35 5.36 -1.7 2.72 0 0 Z " fill="#85A6B7" transform="translate(165,339)"/>
<path d="M0 0 C1.32 0 2.64 0 4 0 C4 0.66 4 1.32 4 2 C7.3 2.66 10.6 3.32 14 4 C14 4.33 14 4.66 14 5 C5.96498906 5.78774617 5.96498906 5.78774617 1.9375 2.5 C1.298125 1.675 0.65875 0.85 0 0 Z " fill="#9EB6BD" transform="translate(155,306)"/>
<path d="M0 0 C0.99 0 1.98 0 3 0 C4.03046722 1.78614318 5.04913236 3.57910018 6.0625 5.375 C6.63097656 6.37273437 7.19945312 7.37046875 7.78515625 8.3984375 C8.38650391 9.68621094 8.38650391 9.68621094 9 11 C8.67 11.66 8.34 12.32 8 13 C6.66388095 11.0226631 5.33100742 9.04327287 4 7.0625 C3.6184375 6.49853516 3.236875 5.93457031 2.84375 5.35351562 C0 1.11328125 0 1.11328125 0 0 Z " fill="#DDB786" transform="translate(296,186)"/>
<path d="M0 0 C4.88449692 4.66247433 4.88449692 4.66247433 5.1953125 8.26171875 C5.16050781 9.46248047 5.16050781 9.46248047 5.125 10.6875 C5.10695313 11.49574219 5.08890625 12.30398437 5.0703125 13.13671875 C5.03550781 14.05904297 5.03550781 14.05904297 5 15 C3.26830404 11.8377726 2.2871024 8.73257278 1.375 5.25 C1.11460937 4.26515625 0.85421875 3.2803125 0.5859375 2.265625 C0.39257812 1.51796875 0.19921875 0.7703125 0 0 Z " fill="#B6C8CF" transform="translate(373,165)"/>
<path d="M0 0 C1.17487036 0.75827092 2.33972592 1.53207755 3.5 2.3125 C4.47453125 2.95638672 4.47453125 2.95638672 5.46875 3.61328125 C5.9740625 4.07089844 6.479375 4.52851563 7 5 C7 5.99 7 6.98 7 8 C4.69 7.34 2.38 6.68 0 6 C0 4.02 0 2.04 0 0 Z " fill="#E6BE88" transform="translate(346,152)"/>
<path d="M0 0 C10.74259681 2.70615034 10.74259681 2.70615034 14 7 C12.35 6.67 10.7 6.34 9 6 C9 5.34 9 4.68 9 4 C4.545 3.01 4.545 3.01 0 2 C0 1.34 0 0.68 0 0 Z " fill="#D9BA8F" transform="translate(332,145)"/>
<path d="M0 0 C2.00130916 2.54712074 3.85727656 4.9527375 5 8 C4.625 10.25 4.625 10.25 4 12 C4 11.34 4 10.68 4 10 C3.01 9.67 2.02 9.34 1 9 C0.67 6.03 0.34 3.06 0 0 Z " fill="#B58E6E" transform="translate(359,166)"/>
<path d="M0 0 C0.66 0.33 1.32 0.66 2 1 C-0.86698342 4.49413605 -2.84150148 6.28836874 -7.3125 6.8125 C-9.1378125 6.9053125 -9.1378125 6.9053125 -11 7 C-7.87266023 4.47407173 -4.6039388 2.76192564 -1 1 C-0.67 0.67 -0.34 0.34 0 0 Z " fill="#4D6772" transform="translate(341,292)"/>
<path d="M0 0 C0.598125 0.226875 1.19625 0.45375 1.8125 0.6875 C0.8534375 1.55375 0.8534375 1.55375 -0.125 2.4375 C-2.16973868 4.66812401 -2.76955199 5.76186391 -3.1875 8.6875 C-3.8475 8.6875 -4.5075 8.6875 -5.1875 8.6875 C-5.55003776 3.24943353 -5.55003776 3.24943353 -3.9375 0.75 C-2.1875 -0.3125 -2.1875 -0.3125 0 0 Z " fill="#384F58" transform="translate(394.1875,212.3125)"/>
<path d="M0 0 C3.39417765 3.12621626 5.6062718 5.56541027 7 10 C6.01 9.67 5.02 9.34 4 9 C4 8.34 4 7.68 4 7 C3.01 6.67 2.02 6.34 1 6 C0.67 4.02 0.34 2.04 0 0 Z " fill="#7A8B95" transform="translate(366,155)"/>
<path d="M0 0 C-2.19632369 2.52577225 -3.67893465 3.52556209 -7 4 C-8.99963028 4.03845443 -11.00051633 4.04544281 -13 4 C-9.38656695 0.38656695 -4.97659681 -0.29274099 0 0 Z " fill="#DDE6EA" transform="translate(305,144)"/>
<path d="M0 0 C0.99 0 1.98 0 3 0 C2.50168276 3.68754757 1.89932357 5.60490662 -1 8 C-1.625 5.125 -1.625 5.125 -2 2 C-1.34 1.34 -0.68 0.68 0 0 Z " fill="#677A80" transform="translate(346,118)"/>
<path d="M0 0 C0 0.99 0 1.98 0 3 C-4.95 4.485 -4.95 4.485 -10 6 C-10 5.01 -10 4.02 -10 3 C-9.04287109 2.80083984 -9.04287109 2.80083984 -8.06640625 2.59765625 C-7.24011719 2.42105469 -6.41382813 2.24445313 -5.5625 2.0625 C-4.73878906 1.88847656 -3.91507813 1.71445313 -3.06640625 1.53515625 C-1.02338796 1.19247006 -1.02338796 1.19247006 0 0 Z " fill="#BDD7E1" transform="translate(180,242)"/>
<path d="M0 0 C-5.29230769 4.92307692 -5.29230769 4.92307692 -8.875 5.3125 C-9.926875 5.1578125 -9.926875 5.1578125 -11 5 C-8.10998474 1.78887193 -4.47884754 -2.23942377 0 0 Z " fill="#CEDBDE" transform="translate(214,173)"/>
<path d="M0 0 C0.33 0.66 0.66 1.32 1 2 C-1.17508418 6.69360269 -1.17508418 6.69360269 -4.1875 7.8125 C-4.785625 7.874375 -5.38375 7.93625 -6 8 C-4.73058503 4.08597051 -3.48832306 2.20927127 0 0 Z " fill="#304545" transform="translate(358,223)"/>
<path d="M0 0 C2 3 2 3 2 5 C2.66 5.33 3.32 5.66 4 6 C-0.31392226 5.5206753 -2.16569547 4.2542015 -5 1 C-3.35 0.67 -1.7 0.34 0 0 Z " fill="#D0B992" transform="translate(282,167)"/>
<path d="M0 0 C0 0.99 0 1.98 0 3 C-2.25 4.75 -2.25 4.75 -5 6 C-7.171875 5.578125 -7.171875 5.578125 -9 5 C-7.87926138 4.16094435 -6.75325453 3.32892169 -5.625 2.5 C-4.99851562 2.0359375 -4.37203125 1.571875 -3.7265625 1.09375 C-2 0 -2 0 0 0 Z " fill="#8B9C9E" transform="translate(386,134)"/>
<path d="M0 0 C0.33 0.66 0.66 1.32 1 2 C-1.17508418 6.69360269 -1.17508418 6.69360269 -4.1875 7.8125 C-4.785625 7.874375 -5.38375 7.93625 -6 8 C-4.55746343 4.63408134 -2.66735273 2.48952921 0 0 Z " fill="#F0D1A5" transform="translate(287,160)"/>
<path d="M0 0 C3.67230705 3.07999946 4.56802365 5.2482602 5 10 C2.08772731 6.71195019 0.50298788 4.40114397 0 0 Z " fill="#A7BDC1" transform="translate(269,347)"/>
<path d="M0 0 C0.33 0 0.66 0 1 0 C0.96744792 2.01822917 0.93489583 4.03645833 0.90234375 6.0546875 C0.87350758 8.08185404 0.87350758 8.08185404 2 10 C0.68 9.67 -0.64 9.34 -2 9 C-1.125 2.25 -1.125 2.25 0 0 Z " fill="#BECED5" transform="translate(384,224)"/>
<path d="M0 0 C0.33 0.99 0.66 1.98 1 3 C-1.15343189 6.23014784 -2.27059611 7.75686537 -6 9 C-4.47291037 5.56404834 -2.40072955 2.88087546 0 0 Z " fill="#C5CFD3" transform="translate(192,186)"/>
<path d="M0 0 C3.91402949 1.26941497 5.79072873 2.51167694 8 6 C3.50347222 6.36458333 3.50347222 6.36458333 1.1875 4.6875 C0 3 0 3 0 0 Z " fill="#5E787C" transform="translate(350,140)"/>
<path d="M0 0 C0.66 0.33 1.32 0.66 2 1 C0.71937515 2.7074998 -0.61767557 4.37373596 -2 6 C-2.66 6 -3.32 6 -4 6 C-4 6.66 -4 7.32 -4 8 C-4.66 8 -5.32 8 -6 8 C-6 7.01 -6 6.02 -6 5 C-5.01 5 -4.02 5 -3 5 C-2.5359375 4.0409375 -2.5359375 4.0409375 -2.0625 3.0625 C-1 1 -1 1 0 0 Z " fill="#D6E5E7" transform="translate(284,401)"/>
<path d="M0 0 C4.62 0.66 9.24 1.32 14 2 C14 2.33 14 2.66 14 3 C9.71 3 5.42 3 1 3 C0.67 2.01 0.34 1.02 0 0 Z " fill="#94B1B9" transform="translate(326,382)"/>
<path d="M0 0 C0.98726527 2.66561622 1.0275526 3.90126985 0.25 6.6875 C-1 9 -1 9 -4 10 C-2.66666667 6.66666667 -1.33333333 3.33333333 0 0 Z " fill="#8BA8B1" transform="translate(188,366)"/>
<path d="M0 0 C1.32 0 2.64 0 4 0 C4.33 2.31 4.66 4.62 5 7 C3.29115995 5.37660195 1.62553283 3.70680947 0 2 C0 1.34 0 0.68 0 0 Z " fill="#7E8E94" transform="translate(144,370)"/>
<path d="M0 0 C0.33 0.66 0.66 1.32 1 2 C0.22265625 3.9453125 0.22265625 3.9453125 -0.9375 6.125 C-1.31777344 6.84945313 -1.69804687 7.57390625 -2.08984375 8.3203125 C-2.39019531 8.87460937 -2.69054687 9.42890625 -3 10 C-3.66 10 -4.32 10 -5 10 C-3.84414715 6.08788267 -2.64465038 3.1254959 0 0 Z " fill="#C3CED5" transform="translate(331,346)"/>
<path d="M0 0 C1 2 1 2 0.3125 5 C-1 8 -1 8 -3.125 9.375 C-3.74375 9.58125 -4.3625 9.7875 -5 10 C-3.66511872 6.40608886 -2.03977277 3.24509304 0 0 Z " fill="#869AA5" transform="translate(150,340)"/>
<path d="M0 0 C4.75 0.875 4.75 0.875 7 2 C7 2.66 7 3.32 7 4 C7.99 4.33 8.98 4.66 10 5 C9.01 5.495 9.01 5.495 8 6 C6.0546875 5.0390625 6.0546875 5.0390625 3.875 3.625 C3.15054688 3.16351563 2.42609375 2.70203125 1.6796875 2.2265625 C1.12539062 1.82179688 0.57109375 1.41703125 0 1 C0 0.67 0 0.34 0 0 Z " fill="#CCE4E6" transform="translate(172,322)"/>
<path d="M0 0 C0.33 0 0.66 0 1 0 C1.125 2.375 1.125 2.375 1 5 C-1 7 -1 7 -2.9453125 7.1953125 C-4.96354167 7.13020833 -6.98177083 7.06510417 -9 7 C-9 6.67 -9 6.34 -9 6 C-7.88625 5.7525 -6.7725 5.505 -5.625 5.25 C-1.95384802 4.38994661 -1.95384802 4.38994661 -0.5625 1.875 C-0.376875 1.25625 -0.19125 0.6375 0 0 Z " fill="#DEF0F5" transform="translate(164,255)"/>
<path d="M0 0 C0.66 0.33 1.32 0.66 2 1 C0.515 4.96 0.515 4.96 -1 9 C-1.33 9 -1.66 9 -2 9 C-2.25 3.375 -2.25 3.375 0 0 Z " fill="#B0CFD7" transform="translate(164,250)"/>
<path d="M0 0 C3.4375 1.1875 3.4375 1.1875 7 3 C7.9375 5.6875 7.9375 5.6875 8 8 C7.34 8 6.68 8 6 8 C5.525625 7.195625 5.05125 6.39125 4.5625 5.5625 C3.20016328 2.7081924 3.20016328 2.7081924 0 2 C0 1.34 0 0.68 0 0 Z " fill="#CCDCE2" transform="translate(334,236)"/>
<path d="M0 0 C0.99 0.33 1.98 0.66 3 1 C1.02 3.31 -0.96 5.62 -3 8 C-4 4 -4 4 -3 2 C-2.01 2 -1.02 2 0 2 C0 1.34 0 0.68 0 0 Z " fill="#40545D" transform="translate(192,183)"/>
<path d="M0 0 C1.04005702 3.38018531 1.08004482 6.4780279 1 10 C0.01 10.33 -0.98 10.66 -2 11 C-1.125 3.375 -1.125 3.375 0 0 Z " fill="#8D9FA5" transform="translate(169,199)"/>
<path d="M0 0 C-0.66 1.32 -1.32 2.64 -2 4 C-3.65 4 -5.3 4 -7 4 C-7 3.34 -7 2.68 -7 2 C-2.25 0 -2.25 0 0 0 Z " fill="#2B4854" transform="translate(258,146)"/>
<path d="M0 0 C1 2 1 2 0.0625 5.125 C-0.288125 6.07375 -0.63875 7.0225 -1 8 C-1.99 8 -2.98 8 -4 8 C-2.87548273 5.0280615 -1.77706209 2.66559313 0 0 Z " fill="#8B9AA1" transform="translate(319,342)"/>
<path d="M0 0 C3.3 0 6.6 0 10 0 C9.67 0.99 9.34 1.98 9 3 C6.03 2.67 3.06 2.34 0 2 C0 1.34 0 0.68 0 0 Z " fill="#ECF6F9" transform="translate(301,235)"/>
<path d="M0 0 C3 3.75 3 3.75 3 6 C-0.16115776 4.63016497 -0.9927092 4.0109362 -3 1 C-2.01 0.67 -1.02 0.34 0 0 Z " fill="#585D55" transform="translate(348,149)"/>
<path d="M0 0 C2.02054804 1.64169528 4.02043058 3.30911778 6 5 C6 5.33 6 5.66 6 6 C4.35 6 2.7 6 1 6 C0.67 4.02 0.34 2.04 0 0 Z " fill="#58676E" transform="translate(358,146)"/>
<path d="M0 0 C0.66 0.33 1.32 0.66 2 1 C1.34 1.66 0.68 2.32 0 3 C-0.99 2.67 -1.98 2.34 -3 2 C-2.01 1.34 -1.02 0.68 0 0 Z M-6 1 C-5.01 1.99 -4.02 2.98 -3 4 C-3.99 4.66 -4.98 5.32 -6 6 C-6.5625 4.0625 -6.5625 4.0625 -7 2 C-6.67 1.67 -6.34 1.34 -6 1 Z " fill="#244251" transform="translate(284,147)"/>
</svg>
